<svg width="800" height="527" viewBox="0 0 800 527" fill="none" xmlns="http://www.w3.org/2000/svg">
<path d="M598.156 354.534C598.156 360.461 600.56 365.831 604.443 369.715C608.324 373.597 613.691 376.002 619.617 376.002H686.34C700.748 376.002 712.996 385.209 717.544 398.065C718.768 401.515 719.435 405.235 719.435 409.109C719.435 418.253 715.734 426.533 709.746 432.524C703.757 438.515 695.481 442.218 686.34 442.218H579.525C576.94 442.218 574.635 443.398 573.104 445.245C571.916 446.678 571.194 448.533 571.194 450.552C571.194 452.859 572.13 454.939 573.635 456.444C575.138 457.958 577.229 458.886 579.525 458.886H627.605C627.802 458.886 628.001 458.886 628.199 458.894C630.802 458.949 633.314 459.335 635.7 460.029C635.836 460.066 635.979 460.101 636.115 460.147C648.146 463.787 656.899 474.968 656.899 488.192C656.899 492.434 655.999 496.471 654.369 500.111C652.901 503.417 650.838 506.39 648.318 508.913C643.022 514.209 635.692 517.489 627.605 517.489H157.174C147.566 517.489 139.082 512.642 134.048 505.255C130.987 500.768 129.194 495.345 129.194 489.498C129.194 481.778 132.328 474.777 137.388 469.705C137.704 469.389 138.019 469.084 138.352 468.785C143.323 464.262 149.925 461.505 157.174 461.505H166.774C173.177 461.505 178.373 456.316 178.373 449.911C178.373 448.253 178.022 446.678 177.401 445.245C176.815 443.912 175.996 442.714 174.979 441.705C172.88 439.605 169.981 438.309 166.774 438.309H74.9085C60.112 438.309 47.9467 427.047 46.5148 412.615C46.4252 411.678 46.3803 410.732 46.3803 409.768C46.3803 401.886 49.5775 394.758 54.7376 389.596C59.8977 384.426 67.0304 381.236 74.9099 381.236H115.228C125.603 381.236 134.013 372.821 134.013 362.443C134.013 357.254 131.906 352.551 128.511 349.155C125.117 345.759 120.415 343.651 115.228 343.651H56.6556C37.7442 343.651 22.4167 328.309 22.4167 309.389C22.4167 299.929 26.2528 291.361 32.4483 285.163C38.6437 278.966 47.1999 275.136 56.6556 275.136H101.07C117.667 275.136 131.121 261.668 131.121 245.064V128.451C131.121 119.325 138.515 111.929 147.637 111.929C152.203 111.929 156.328 110.082 159.318 107.082C162.307 104.091 164.154 99.9565 164.154 95.3972V64.7302C164.154 34.3969 188.74 9.81152 219.061 9.81152H575.05C590.296 9.81152 602.652 22.1722 602.652 37.4244C602.652 45.0546 599.563 51.9561 594.565 56.9556C589.576 61.9551 582.669 65.0456 575.05 65.0456H545.359C537.732 65.0456 531.553 71.2252 531.553 78.8471C531.553 82.6581 533.103 86.1172 535.596 88.6134C538.09 91.1097 541.549 92.6584 545.359 92.6584H675.759C702.263 92.6584 723.741 114.145 723.741 140.659C723.741 153.921 718.373 165.92 709.692 174.604C701.002 183.288 689.006 188.658 675.759 188.658C664.438 188.658 654.181 193.252 646.761 200.677C642.303 205.145 638.864 210.632 636.828 216.767C635.486 220.83 634.757 225.172 634.757 229.685V230.577C634.757 253.225 653.111 271.595 675.759 271.595H688.719C705.685 271.595 719.437 285.351 719.437 302.333C719.437 303.144 719.41 303.946 719.347 304.73C718.761 312.262 715.466 319.036 710.441 324.063C704.884 329.622 697.202 333.063 688.719 333.063H619.619C607.765 333.064 598.156 342.678 598.156 354.534Z" fill="black"/>
<path d="M119.244 91.3783C126.514 84.1051 126.514 72.3129 119.244 65.0397C111.973 57.7665 100.186 57.7665 92.9152 65.0397C85.6448 72.3129 85.6448 84.1051 92.9152 91.3783C100.186 98.6515 111.973 98.6515 119.244 91.3783Z" fill="#E0F4FC"/>
<path d="M759.616 422.356C769.115 418.419 773.626 407.524 769.691 398.021C765.757 388.518 754.866 384.005 745.366 387.942C735.867 391.878 731.356 402.773 735.291 412.276C739.225 421.78 750.116 426.292 759.616 422.356Z" fill="#E0F4FC"/>
<path d="M436.357 400.309C436.09 400.309 435.819 400.261 435.56 400.163C434.686 399.831 434.107 398.993 434.107 398.057V337.561C434.107 336.316 435.115 335.309 436.359 335.309H489.963C490.848 335.309 491.653 335.829 492.017 336.637C492.38 337.445 492.235 338.392 491.648 339.055L438.044 399.551C437.607 400.043 436.989 400.309 436.357 400.309ZM438.609 339.813V392.121L484.958 339.813H438.609Z" fill="#00B3F9"/>
<path d="M498.309 342.058H410.33C407.847 342.058 405.837 340.045 405.837 337.563C405.837 335.081 407.849 333.066 410.33 333.066H498.309C500.792 333.066 502.802 335.079 502.802 337.563C502.803 340.045 500.792 342.058 498.309 342.058Z" fill="#0D5375"/>
<path d="M602.649 215.858C602.649 215.858 585.521 330.281 585.143 331.435C584.757 332.597 538.666 393.652 538.666 393.652L509.38 376.003L498.393 268.092L521.132 219.056L522.618 215.858H538.666C538.666 215.858 544.015 203.993 559.856 203.993C562.575 203.993 564.836 204.345 566.718 204.921C566.745 204.929 566.771 204.939 566.799 204.948C566.826 204.948 566.862 204.966 566.907 204.974C575.832 207.831 576.12 215.858 576.12 215.858H602.649Z" fill="#65B8D1"/>
<path opacity="0.25" d="M602.649 215.857C602.649 215.857 585.521 330.281 585.143 331.434C584.757 332.596 538.666 393.651 538.666 393.651L509.38 376.002L498.393 268.092L521.132 219.056C525.059 219.371 531.137 222.804 538.666 236.623C552.255 261.561 559.316 266.381 568.951 266.056C576.489 265.813 580.677 231.299 594.761 215.857H602.649Z" fill="black"/>
<path d="M587.466 215.858H576.119C576.119 215.858 575.83 207.831 566.906 204.975C568.797 205.516 583.972 209.911 585.475 212.218C585.981 212.985 586.71 214.21 587.466 215.858Z" fill="#8BDEF2"/>
<path d="M443.452 398.056C443.452 401.975 440.276 405.153 436.359 405.153C432.441 405.153 429.265 401.975 429.265 398.056C429.265 394.137 432.441 390.96 436.359 390.96C440.276 390.96 443.452 394.137 443.452 398.056Z" fill="#0D5375"/>
<path d="M186.638 140.9L195.571 117.803C196.171 116.252 198.351 116.215 199.004 117.744L209.129 142.236" stroke="#65B8D1" stroke-width="1.2855" stroke-miterlimit="10"/>
<path d="M231.731 182.916C236.631 163.85 225.153 144.421 206.095 139.519C187.037 134.618 167.615 146.1 162.716 165.165C157.816 184.231 169.293 203.66 188.352 208.562C207.41 213.464 226.831 201.982 231.731 182.916Z" fill="#A5CAD3"/>
<path d="M224.974 199.232C238.888 185.312 238.888 162.744 224.974 148.824C211.06 134.905 188.5 134.905 174.586 148.824C160.672 162.744 160.672 185.312 174.586 199.232C188.5 213.152 211.06 213.152 224.974 199.232Z" fill="#CAE7EF"/>
<path opacity="0.55" d="M220.502 185.623C226.901 174.182 222.818 159.717 211.381 153.316C199.945 146.914 185.486 151 179.087 162.441C172.688 173.882 176.772 188.346 188.208 194.747C199.645 201.149 214.103 197.063 220.502 185.623Z" fill="white"/>
<path d="M322.442 63.7045L331.375 40.6076C331.974 39.0561 334.154 39.0196 334.807 40.5502L344.933 65.0431" stroke="#65B8D1" stroke-width="1.2855" stroke-miterlimit="10"/>
<path d="M333.018 132.476C352.696 132.476 368.648 116.518 368.648 96.8325C368.648 77.1468 352.696 61.1885 333.018 61.1885C313.34 61.1885 297.388 77.1468 297.388 96.8325C297.388 116.518 313.34 132.476 333.018 132.476Z" fill="#CAE7EF"/>
<path d="M335.586 132.476C355.264 132.476 371.217 116.518 371.217 96.8325C371.217 77.1468 355.264 61.1885 335.586 61.1885C315.908 61.1885 299.956 77.1468 299.956 96.8325C299.956 116.518 315.908 132.476 335.586 132.476Z" fill="white"/>
<path d="M335.586 120.571C348.691 120.571 359.315 109.943 359.315 96.8331C359.315 83.7233 348.691 73.0957 335.586 73.0957C322.482 73.0957 311.858 83.7233 311.858 96.8331C311.858 109.943 322.482 120.571 335.586 120.571Z" fill="#CAE7EF"/>
<path d="M418.162 517.49H409.697L355.844 310.695H364.3L418.162 517.49Z" fill="#008EBA"/>
<path opacity="0.25" d="M418.162 517.49H413.534L359.672 310.695H364.3L418.162 517.49Z" fill="black"/>
<path d="M450.285 359.399L445.693 371.39C445.693 371.39 440.695 379.075 434.138 387.48C434.057 387.598 433.985 387.687 433.922 387.759C433.886 387.795 433.859 387.84 433.823 387.893C427.681 395.723 420.252 404.073 414.308 407.353C409.129 410.2 398.565 425.417 387.903 442.218C372.918 465.821 357.744 492.551 356.988 492.551C355.709 492.551 337.302 482.271 336.87 480.137C336.455 478.055 371.532 404.586 382.194 386.956C382.519 386.425 382.816 385.938 383.095 385.515C386.878 379.667 394.432 373.415 402.106 368.029C405.24 365.821 408.392 363.768 411.319 361.947C419.073 357.109 425.251 353.894 425.251 353.894L447.288 358.74L450.285 359.399Z" fill="#0D5375"/>
<path d="M408.13 374.596C403.42 377.614 392.083 389.37 388.66 390.011C386.516 390.408 383.868 388.461 382.194 386.957C382.519 386.426 382.816 385.939 383.095 385.516C388.426 377.282 401.215 368.246 411.318 361.948C414.759 366.885 412.066 372.948 408.13 374.596Z" fill="#02374C"/>
<path opacity="0.25" d="M447.287 358.741C444.838 365.498 436.282 384.417 434.139 387.479C434.058 387.597 433.987 387.686 433.924 387.758C433.887 387.794 433.861 387.839 433.824 387.892C427.682 395.722 420.254 404.073 414.309 407.352C409.131 410.199 398.567 425.416 387.905 442.217C396.496 419.713 400.629 383.884 402.106 368.028C405.24 365.82 408.392 363.767 411.319 361.946C419.073 357.108 425.251 353.893 425.251 353.893L447.287 358.741Z" fill="black"/>
<g opacity="0.25">
<path d="M417.594 381.233C417.594 381.233 416.708 381.784 415.094 383.144" stroke="#F9F9F9" stroke-width="1.2855" stroke-miterlimit="10" stroke-linecap="round"/>
<path d="M410.652 387.323C405.847 392.271 398.875 400.725 390.799 414.415C378.722 434.886 363.884 466.934 358.033 479.831" stroke="#F9F9F9" stroke-width="1.2855" stroke-miterlimit="10" stroke-linecap="round" stroke-dasharray="4.36 4.36"/>
<path d="M356.775 482.616C355.947 484.457 355.49 485.488 355.49 485.488" stroke="#F9F9F9" stroke-width="1.2855" stroke-miterlimit="10" stroke-linecap="round"/>
</g>
<path d="M536.234 385.083C530.327 394.724 518.808 392.146 501.562 389.796C484.317 387.444 456.706 389.372 452.645 390.868C450.196 391.769 442.774 429.065 436.516 458.886C433.174 474.823 430.158 488.625 428.411 493.598V493.606C427.996 494.778 427.654 495.453 427.393 495.552C423.971 496.831 413.056 499.192 405.141 492.129C403.861 470.327 404.61 418.75 409.833 386.129C411.588 375.183 413.849 366.372 416.695 361.534C419.577 356.632 425.854 352.948 433.599 350.164C433.625 350.156 433.653 350.146 433.68 350.137C433.707 350.128 433.743 350.119 433.798 350.101C434.023 350.011 434.239 349.938 434.465 349.857C443.344 346.785 454.025 344.858 463.751 343.649C468.406 350.325 482.707 347.694 493.676 349.388C496.206 349.774 499.403 350.027 502.906 350.118C515.559 350.47 532.263 348.893 536.235 345.2C536.576 345.767 548.301 365.443 536.234 385.083Z" fill="#0D5375"/>
<path opacity="0.25" d="M536.234 385.084C530.327 394.724 518.808 392.146 501.562 389.796C484.317 387.444 456.706 389.372 452.645 390.868C450.196 391.769 442.774 429.066 436.516 458.886C438.875 430.669 443.18 381.067 444.503 381.238C446.214 381.445 452.427 387.761 452.427 387.761C452.427 387.761 505.551 381.337 499.328 373.157C493.106 364.968 468.799 350.995 457.559 348.428C447.14 346.049 435.424 349.581 433.793 350.104C434.019 350.014 434.235 349.941 434.46 349.86C443.34 346.788 454.02 344.861 463.747 343.652C468.402 350.328 482.703 347.697 493.672 349.39C496.202 349.777 499.399 350.03 502.902 350.121C515.555 350.472 532.259 348.896 536.231 345.202C536.576 345.767 548.301 365.443 536.234 385.084Z" fill="black"/>
<path d="M445.693 283.831L432.743 285.327C432.743 285.327 419.945 284.958 404.807 284.498C385.076 283.894 361.373 283.121 356.772 282.76C348.64 282.121 333.447 278.689 334.519 276.337C335.591 273.985 345.218 272.913 349.712 272.697C354.205 272.481 362.121 276.337 365.121 276.337C367.724 276.337 400.531 275.049 411.157 274.426C412.796 274.327 413.912 274.247 414.309 274.192C417.272 273.769 429.555 264.94 429.555 264.94L438.858 267.508L445.693 283.831Z" fill="url(#paint0_linear_652_200)"/>
<path opacity="0.25" d="M445.693 283.831L432.743 285.327C432.743 285.327 419.945 284.958 404.807 284.498L411.155 274.426C412.794 274.327 413.911 274.247 414.308 274.192C417.271 273.769 429.554 264.94 429.554 264.94L438.857 267.508L445.693 283.831Z" fill="black"/>
<path d="M537.009 344.093C536.874 344.48 536.612 344.85 536.234 345.192V345.2C532.262 348.893 515.557 350.47 502.904 350.118C499.402 350.028 496.205 349.776 493.674 349.388C482.705 347.695 468.405 350.326 463.749 343.65C463.082 342.713 462.614 341.587 462.38 340.235C460.607 330.2 467.451 316.236 466.542 300.325C466.46 298.929 466.316 297.515 466.109 296.082C465.883 294.542 465.659 292.983 465.442 291.425C465.307 290.497 465.171 289.561 465.045 288.623C464.433 284.2 463.857 279.785 463.361 275.55C455.724 279.352 445.431 284.676 443.116 284.361C442.621 284.298 441.963 283.893 441.198 283.244C436.524 279.28 428.004 266.126 429.798 264.614C431.887 262.848 471.692 234.109 471.692 234.109C475.078 231.515 479.238 229.11 484.101 227.1C485.911 226.343 487.821 225.649 489.82 225.019H489.828C492.179 224.27 494.655 223.613 497.258 223.063C497.258 223.063 498.672 223.307 500.905 223.784L500.995 223.802C502.516 224.117 504.399 224.541 506.47 225.072L506.696 225.127C514.809 227.198 525.652 230.785 528.66 235.667C529.335 236.757 529.929 238.837 530.47 241.649C533.901 259.64 534.711 307.459 535.405 315.514C536.207 324.822 538.935 338.471 537.009 344.093Z" fill="#0C1C28"/>
<path opacity="0.25" d="M537.009 344.093C535.469 348.579 516.755 350.506 502.904 350.12C513.432 347.389 519.997 342.327 520.591 337.344C521.555 329.209 513.845 326.426 498.627 323.002C488.469 320.713 474.619 308.317 466.54 300.327C466.459 298.931 466.315 297.516 466.107 296.084C465.882 294.544 465.657 292.985 465.44 291.426C486.829 280.868 526.651 236.624 526.651 236.624L530.469 241.652C533.9 259.642 534.71 307.462 535.403 315.517C536.207 324.822 538.935 338.471 537.009 344.093Z" fill="black"/>
<path opacity="0.25" d="M467.441 280.408V288.75C467.441 288.75 466.55 288.705 465.045 288.624C464.433 284.2 463.857 279.785 463.361 275.551C455.724 279.352 445.431 284.677 443.116 284.361C442.621 284.298 441.963 283.893 441.198 283.244C452.779 276.217 462.829 249.542 467.44 247.434C464.478 253.001 467.441 280.408 467.441 280.408Z" fill="black"/>
<path d="M538.665 262.416C538.764 270.488 534.225 281.479 530.633 287.713C528.904 290.704 527.399 292.605 526.724 292.552C526.408 292.525 525.715 292.281 524.751 291.85C519.284 289.426 505.101 281.11 502.508 273.606C503.265 272.292 504.011 271.012 504.75 269.759C517.474 248.173 527.291 235.462 528.137 234.921C528.137 234.921 538.386 240.002 538.665 262.416Z" fill="#0C1C28"/>
<path d="M524.752 291.85C522.275 295.003 517.583 300.768 512.712 305.859C507.263 311.544 501.58 316.382 498.493 315.751C491.351 314.309 442.479 278.264 437.821 277.544C433.166 276.823 414.236 278.508 414.308 277.22C414.389 275.932 424.664 264.94 429.554 264.94C434.444 264.94 445.927 270.959 450.906 271.517C455.877 272.084 494.952 286.616 494.952 286.616L499.329 279.084L502.508 273.606C505.103 281.111 519.286 289.426 524.752 291.85Z" fill="url(#paint1_linear_652_200)"/>
<path opacity="0.25" d="M506.696 225.127C503.256 234.758 492.755 241.948 486.505 239.244C481.363 237.018 483.047 230.163 484.101 227.099C485.911 226.343 487.821 225.649 489.82 225.018H489.828L500.905 223.783L500.995 223.801L506.47 225.071L506.696 225.127Z" fill="black"/>
<path d="M473.24 211.407L468.576 212.219L467.919 212.335C464.191 212.993 460.31 208.614 459.255 202.561C458.193 196.507 460.345 191.065 464.073 190.407L469.404 189.479C468.747 189.597 468.135 189.858 467.585 190.263C467.342 190.426 467.108 190.623 466.892 190.839C465.964 191.758 465.253 193.082 464.821 194.65C464.254 196.658 464.137 199.092 464.579 201.623C465.02 204.164 465.966 206.398 467.172 208.101C468.126 209.434 469.243 210.435 470.422 210.984C471.34 211.416 472.294 211.57 473.24 211.407Z" fill="#07171C"/>
<path opacity="0.25" d="M473.24 211.407L468.576 212.219C465.55 211.372 462.776 207.525 461.911 202.56C460.849 196.507 463.001 191.064 466.729 190.407L467.585 190.263C467.342 190.425 467.108 190.623 466.892 190.839C465.964 191.758 465.253 193.081 464.821 194.65C464.254 196.658 464.137 199.091 464.579 201.623C465.02 204.164 465.966 206.398 467.172 208.101C468.126 209.434 469.243 210.434 470.422 210.984C471.34 211.416 472.294 211.57 473.24 211.407Z" fill="black"/>
<path d="M510.217 184.668C509.667 194.632 505.876 206.209 498.833 214.019C498.825 214.027 498.825 214.027 498.815 214.037L491.8 189.956C491.8 189.956 484.209 193.163 475.329 196.595C470.881 198.307 467.269 199.703 463.711 200.036C460.172 200.36 456.705 199.631 452.535 197.127C446.826 193.686 445.646 185.875 448.51 181.244C449.834 179.099 452.013 177.64 454.994 177.595C456.921 162.821 468.709 159.767 475.896 167.153C475.986 167.253 476.112 167.334 476.256 167.397C476.256 167.397 476.266 167.406 476.283 167.416C478.85 168.632 488.702 166.353 488.702 166.353C488.702 166.353 491.773 162.642 498.428 163.83C499.968 164.109 501.697 164.642 503.625 165.551C508.524 167.849 510.721 175.587 510.217 184.668Z" fill="#0C1C28"/>
<path d="M501.968 224.74C499.078 235.128 489.234 236.299 487.847 235.443C487.19 235.038 485.884 232.208 484.705 229.361C483.507 226.488 482.435 223.595 482.264 223.136C482.256 223.091 482.246 223.073 482.246 223.073C482.246 223.073 482.165 223.126 481.985 223.172C481.725 223.235 481.265 223.298 480.545 223.19C479.536 223.037 478.023 222.533 475.898 221.208C468.261 216.479 464.939 205.244 463.92 200.965C463.839 200.605 463.767 200.29 463.713 200.037C467.27 199.704 470.882 198.308 475.33 196.596C484.21 193.164 491.801 189.957 491.801 189.957L497.258 208.696L498.816 214.039C498.825 214.029 498.825 214.029 498.834 214.021C499.483 217.137 500.509 221.172 501.968 224.74Z" fill="url(#paint2_linear_652_200)"/>
<path opacity="0.25" d="M510.217 184.667C509.667 194.631 505.876 206.209 498.833 214.018C498.825 214.027 498.825 214.027 498.815 214.036L491.8 189.956C491.8 189.956 484.209 193.163 475.329 196.595C470.881 198.306 467.269 199.702 463.711 200.036C460.172 200.36 456.705 199.631 452.535 197.126C446.826 193.685 445.646 185.874 448.51 181.243C448.087 189.091 454.111 192.748 454.111 192.748C454.111 192.748 452.59 188.108 454.76 184.658C454.833 188.676 457.246 192.685 466.107 193.612C474.977 194.54 485.253 188.027 483.407 179.522C481.642 171.369 476.698 167.711 476.284 167.414C478.851 168.63 488.703 166.351 488.703 166.351C488.703 166.351 491.774 162.64 498.429 163.828C495.323 167.928 504.715 180 508.984 183.288C509.461 183.658 509.866 184.128 510.217 184.667Z" fill="black"/>
<path opacity="0.25" d="M484.705 229.362C483.507 226.489 482.435 223.596 482.264 223.136C484.335 222.858 487.875 221.614 490.55 216.768C491.783 219.38 486.659 226.713 484.705 229.362Z" fill="black"/>
<path opacity="0.25" d="M497.258 208.695C490.198 204.371 483.543 197.866 473.24 200.037C469.097 200.911 466.081 201.091 463.919 200.965C463.837 200.605 463.766 200.29 463.711 200.037C467.269 199.704 470.881 198.308 475.329 196.596C484.209 193.164 491.8 189.957 491.8 189.957L497.258 208.695Z" fill="black"/>
<path d="M497.87 182.38L491.873 184.659C491.873 184.659 491.819 184.226 491.683 183.497C490.927 179.318 487.613 165.417 477.338 167.696C478.815 164.47 493.386 161.939 497.258 178.84C497.51 179.938 497.718 181.119 497.87 182.38Z" fill="#00B3F9"/>
<path d="M503.886 203.93C502.941 204.092 501.987 203.938 501.068 203.507C499.888 202.957 498.771 201.958 497.817 200.623C496.611 198.92 495.665 196.686 495.224 194.147C494.782 191.615 494.9 189.182 495.468 187.174C495.9 185.607 496.611 184.282 497.538 183.363C498.258 182.642 499.105 182.164 500.05 182.002C503.77 181.344 507.651 185.723 508.715 191.777C509.777 197.83 507.615 203.272 503.886 203.93Z" fill="#00B3F9"/>
<path d="M506.38 198.921C505.957 199.002 505.524 198.957 505.101 198.821C504.975 198.785 504.857 198.732 504.731 198.677C504.345 198.496 503.966 198.227 503.606 197.884C503.327 197.631 503.066 197.326 502.823 196.982C502.111 195.982 501.562 194.675 501.302 193.18C501.041 191.693 501.112 190.27 501.446 189.09C501.554 188.685 501.698 188.306 501.879 187.964C502.095 187.531 502.357 187.154 502.662 186.856C502.743 186.774 502.825 186.703 502.914 186.64C503.274 186.333 503.689 186.135 504.139 186.054C506.319 185.667 508.597 188.243 509.218 191.792C509.838 195.344 508.569 198.534 506.38 198.921Z" fill="#07171C"/>
<path opacity="0.25" d="M505.868 199.02C505.345 200.038 504.57 200.731 503.626 200.902C503.203 200.984 502.77 200.939 502.347 200.803C502.221 200.766 502.104 200.713 501.977 200.658C501.59 200.478 501.212 200.209 500.852 199.865C500.573 199.613 500.312 199.307 500.069 198.964C499.357 197.963 498.808 196.658 498.547 195.161C498.305 193.756 498.35 192.404 498.647 191.261C498.602 192.018 498.647 192.828 498.791 193.657C499.052 195.145 499.602 196.459 500.312 197.459C500.87 198.234 501.529 198.828 502.222 199.143C502.763 199.404 503.321 199.495 503.87 199.396L505.868 199.02Z" fill="black"/>
<path d="M503.887 203.93L498.564 204.858C494.836 205.515 490.953 201.137 489.9 195.083C488.838 189.03 490.99 183.587 494.718 182.93L500.049 182.002C499.103 182.165 498.257 182.641 497.537 183.363C496.609 184.282 495.898 185.607 495.466 187.174C494.899 189.182 494.783 191.615 495.222 194.147C495.664 196.688 496.609 198.922 497.816 200.624C498.77 201.956 499.887 202.957 501.066 203.507C501.985 203.938 502.941 204.091 503.887 203.93Z" fill="#07171C"/>
<path opacity="0.25" d="M497.87 182.38L491.872 184.659C491.872 184.659 491.819 184.226 491.683 183.497C493.107 180.858 495.141 179.101 497.258 178.84C497.51 179.939 497.718 181.119 497.87 182.38Z" fill="black"/>
<path d="M506.38 198.921L505.868 199.02L503.868 199.399C503.319 199.498 502.76 199.407 502.221 199.147C501.527 198.831 500.87 198.237 500.311 197.462C499.599 196.461 499.05 195.146 498.79 193.661C498.645 192.832 498.6 192.021 498.645 191.264C498.645 191.254 498.645 191.254 498.645 191.246C498.69 190.652 498.79 190.084 498.934 189.569C499.186 188.65 499.601 187.867 500.15 187.335C500.573 186.912 501.069 186.623 501.627 186.534L504.139 186.056C503.689 186.137 503.274 186.335 502.914 186.642C502.825 186.705 502.743 186.776 502.662 186.857C502.357 187.155 502.095 187.533 501.879 187.966C501.869 187.976 501.869 187.993 501.861 188.002C501.69 188.336 501.554 188.696 501.446 189.093C501.112 190.273 501.041 191.697 501.302 193.183C501.564 194.678 502.113 195.985 502.823 196.985C503.067 197.327 503.327 197.634 503.606 197.887C503.966 198.229 504.345 198.499 504.731 198.68C504.857 198.733 504.975 198.788 505.101 198.824C505.362 198.905 505.642 198.95 505.903 198.959C506.065 198.966 506.219 198.948 506.38 198.921Z" fill="#008EBA"/>
<path opacity="0.25" d="M530.633 287.713C528.904 290.704 527.399 292.605 526.724 292.552C526.408 292.525 525.715 292.281 524.751 291.849C519.284 289.426 505.101 281.11 502.508 273.606C503.265 272.291 504.011 271.012 504.75 269.759C508.74 273.507 521.204 284.74 530.633 287.713Z" fill="white"/>
<path opacity="0.25" d="M524.752 291.85C522.275 295.003 517.583 300.768 512.712 305.859C504.202 297.642 500.726 286.309 499.329 279.084L502.508 273.606C505.103 281.111 519.286 289.426 524.752 291.85Z" fill="black"/>
<path d="M427.87 363.516C421.026 370.218 417.765 387.922 416.154 387.759C415.119 387.659 411.948 386.76 409.833 386.129C411.588 375.182 413.849 366.372 416.695 361.534C419.685 356.453 426.322 352.678 434.463 349.858C436.525 352.831 438.47 355.904 438.624 356.616C438.948 358.056 434.939 356.614 427.87 363.516Z" fill="#02374C"/>
<path opacity="0.25" d="M512.041 355.651C512.041 355.651 509.782 364.627 520.587 368.81" stroke="#F9F9F9" stroke-width="1.2855" stroke-miterlimit="10"/>
<g opacity="0.25">
<path d="M509.244 361.948C509.244 361.948 508.099 362.032 506.11 362.223" stroke="#F9F9F9" stroke-width="1.2855" stroke-miterlimit="10" stroke-linecap="round"/>
<path d="M499.674 362.915C482.796 364.925 449.024 370.422 443.763 382.624C437.824 396.399 428.063 464.011 425.11 485.152" stroke="#F9F9F9" stroke-width="1.2855" stroke-miterlimit="10" stroke-linecap="round" stroke-dasharray="4.62 4.62"/>
<path d="M424.663 488.362C424.387 490.367 424.235 491.481 424.235 491.481" stroke="#F9F9F9" stroke-width="1.2855" stroke-miterlimit="10" stroke-linecap="round"/>
</g>
<path d="M430.284 517.489H377.638C377.638 515.813 378.151 514.283 379.043 512.885C382.069 508.093 389.408 504.858 395.028 502.687C397.82 501.597 400.188 500.777 401.394 500.156C405.726 497.903 405.141 492.129 405.141 492.129C406.654 493.48 408.275 494.481 409.932 495.21C410.382 495.409 410.833 495.588 411.291 495.751C411.291 495.751 411.291 495.751 411.301 495.751C417.929 498.103 424.81 496.526 427.393 495.553C427.654 495.453 427.997 494.778 428.411 493.608L429.113 502.599L429.922 512.887L430.284 517.489Z" fill="#1C1C1C"/>
<path d="M356.988 492.552C356.988 492.552 355.493 496.471 353.475 501.21C351.873 504.966 349.945 509.237 348.171 512.462C346.55 515.416 345.065 517.489 344.091 517.489C340.723 517.489 305.097 497.102 301.566 487.309C302.864 486.165 304.241 485.408 305.683 484.93C310.627 483.29 316.426 484.894 322.892 485.38C324.36 485.488 325.863 485.543 327.403 485.488C337.679 485.11 336.867 480.137 336.867 480.137C337.012 480.839 339.137 482.452 341.956 484.281C343.073 485.002 344.297 485.767 345.558 486.515C350.684 489.597 356.304 492.552 356.988 492.552Z" fill="#1C1C1C"/>
<path opacity="0.25" d="M409.932 495.21C408.366 503.588 402.718 507.183 399.891 506.787C397.458 506.453 395.685 503.814 395.028 502.687C397.82 501.597 400.188 500.777 401.394 500.156C405.726 497.903 405.14 492.129 405.14 492.129C406.653 493.48 408.275 494.479 409.932 495.21Z" fill="black"/>
<path opacity="0.25" d="M341.957 484.281C337.625 491.155 328.198 492.182 325.802 491.48C323.884 490.912 323.154 487.408 322.893 485.38C324.362 485.488 325.865 485.543 327.405 485.488C337.68 485.11 336.869 480.137 336.869 480.137C337.013 480.84 339.138 482.452 341.957 484.281Z" fill="black"/>
<path opacity="0.25" d="M348.171 512.462C346.55 515.417 345.065 517.49 344.091 517.49C340.723 517.49 305.097 497.102 301.566 487.309C302.864 486.165 304.241 485.409 305.683 484.931C311.717 490.589 332.493 509.219 348.171 512.462Z" fill="black"/>
<path opacity="0.25" d="M356.988 492.552C356.988 492.552 355.493 496.471 353.475 501.21L345.559 486.516C350.684 489.598 356.304 492.552 356.988 492.552Z" fill="black"/>
<path opacity="0.25" d="M429.114 502.597C421.269 502.516 411.679 496.021 411.301 495.75C417.929 498.102 424.81 496.526 427.393 495.553C427.654 495.453 427.997 494.778 428.41 493.607L429.114 502.597Z" fill="black"/>
<path d="M316.731 286.614C316.731 286.614 318.337 280.51 324.916 278.422C331.497 276.335 341.527 280.991 344.416 281.954C347.305 282.917 345.139 286.616 345.139 286.616L316.731 286.614Z" fill="url(#paint3_linear_652_200)"/>
<path d="M330.667 286.615L334.466 279.975H401.499L398.931 286.614L330.667 286.615Z" fill="url(#paint4_linear_652_200)"/>
<path d="M401.499 279.975L442.383 282.453L443.763 286.614H398.931L401.499 279.975Z" fill="#3A1508"/>
<path d="M517.593 517.489H482.921C480.391 517.489 478.365 515.318 478.607 512.732C478.823 510.48 480.849 508.822 483.11 508.822H483.165C490.127 508.822 495.763 503.182 495.763 496.218V409.064H504.751V496.218C504.751 503.183 510.389 508.822 517.349 508.822H517.404C519.664 508.822 521.691 510.48 521.907 512.732C522.149 515.318 520.123 517.489 517.593 517.489Z" fill="#0D5375"/>
<path opacity="0.25" d="M517.593 517.489H489.667C487.137 517.489 485.111 515.318 485.353 512.732C485.569 510.48 487.595 508.822 489.856 508.822H489.911C496.873 508.822 502.509 503.182 502.509 496.218V409.064H504.751V496.218C504.751 503.183 510.389 508.822 517.349 508.822H517.404C519.664 508.822 521.691 510.48 521.907 512.732C522.149 515.318 520.123 517.489 517.593 517.489Z" fill="black"/>
<path d="M619.724 227.885L619.697 227.966L559.217 409.065H451.943C448.664 409.065 446.179 406.128 446.71 402.893L448.483 392.191C448.906 389.631 451.113 387.759 453.706 387.759H530.244C533.739 387.759 536.863 385.561 538.034 382.273L595.922 220.399C597.191 216.867 600.956 214.903 604.567 215.894L614.798 218.677C618.778 219.768 621.03 223.966 619.724 227.885Z" fill="#8BDEF2"/>
<path opacity="0.25" d="M619.697 227.966L559.217 409.064H457.743L458.752 402.948C459.175 400.388 461.39 398.506 463.983 398.506H540.521C544.015 398.506 547.131 396.317 548.311 393.019L606.198 231.144C607.459 227.622 611.224 225.659 614.844 226.64L619.697 227.966Z" fill="black"/>
<path d="M504.75 400.309C504.482 400.309 504.212 400.261 503.952 400.163C503.078 399.831 502.5 398.993 502.5 398.057V337.561C502.5 336.316 503.507 335.309 504.751 335.309H558.355C559.241 335.309 560.045 335.829 560.409 336.637C560.772 337.445 560.628 338.392 560.041 339.055L506.436 399.551C505.999 400.043 505.383 400.309 504.75 400.309ZM507.002 339.813V392.121L553.352 339.813H507.002Z" fill="#00B3F9"/>
<path d="M511.844 398.056C511.844 401.975 508.668 405.153 504.751 405.153C500.834 405.153 497.657 401.975 497.657 398.056C497.657 394.137 500.834 390.96 504.751 390.96C508.668 390.96 511.844 394.137 511.844 398.056Z" fill="#0D5375"/>
<path d="M570.767 342.058H478.722C476.241 342.058 474.229 340.045 474.229 337.563C474.229 335.081 476.241 333.066 478.722 333.066H570.767C573.25 333.066 575.262 335.079 575.262 337.563C575.262 340.045 573.25 342.058 570.767 342.058Z" fill="#0D5375"/>
<path d="M267.058 310.695H190.403C189.241 310.695 188.124 310.532 187.061 310.217C182.036 308.774 178.37 304.145 178.37 298.658C178.37 295.333 179.721 292.324 181.891 290.144C184.07 287.963 187.078 286.612 190.401 286.612H267.057C263.734 286.612 260.726 287.963 258.547 290.144C257.502 291.19 256.647 292.433 256.035 293.811C255.378 295.288 255.018 296.928 255.018 298.658C255.018 305.308 260.412 310.695 267.058 310.695Z" fill="#11191E"/>
<path d="M471.366 298.659C471.366 301.983 470.024 304.992 467.846 307.172C465.666 309.343 462.659 310.694 459.336 310.694H267.058C260.412 310.694 255.018 305.306 255.018 298.659C255.018 296.929 255.378 295.289 256.035 293.812C256.647 292.434 257.503 291.191 258.547 290.145C260.727 287.964 263.734 286.613 267.057 286.613H459.334C465.981 286.613 471.366 292.009 471.366 298.659Z" fill="#1C262D"/>
<path opacity="0.25" d="M441.198 305.858C441.198 307.579 440.774 309.209 440.01 310.696H190.404C189.242 310.696 188.126 310.534 187.062 310.218C186.432 308.867 186.09 307.398 186.09 305.858C186.09 302.533 187.675 299.534 190.251 297.345C192.818 295.164 196.365 293.812 200.283 293.812H427.015C434.849 293.812 441.198 299.209 441.198 305.858Z" fill="black"/>
<path d="M215.348 310.694L161.486 517.489H153.031L206.893 310.694H215.348Z" fill="#008EBA"/>
<path opacity="0.25" d="M215.348 310.694L161.486 517.489H156.859L210.721 310.694H215.348Z" fill="black"/>
<path d="M292.95 310.694L239.088 517.489H230.623L284.485 310.694H292.95Z" fill="#00B3F9"/>
<path opacity="0.25" d="M292.95 310.694L239.088 517.489H235.116L288.978 310.694H292.95Z" fill="black"/>
<path d="M495.763 517.489H487.298L433.436 310.694H441.901L495.763 517.489Z" fill="#00B3F9"/>
<path opacity="0.25" d="M495.763 517.489H491.791L437.929 310.694H441.901L495.763 517.489Z" fill="black"/>
<path d="M533.32 126.963H412.628C408.462 126.963 405.084 123.586 405.084 119.417C405.084 115.25 408.461 111.871 412.628 111.871H533.32C537.485 111.871 540.863 115.249 540.863 119.417C540.863 123.584 537.485 126.963 533.32 126.963Z" fill="#CAE7EF"/>
<path d="M432.733 155.542C430.582 155.542 428.838 153.798 428.838 151.645V126.962H436.626V151.645C436.628 153.798 434.885 155.542 432.733 155.542Z" fill="#ADD0D8"/>
<path d="M513.467 155.542C511.316 155.542 509.572 153.798 509.572 151.645V126.962H517.36V151.645C517.362 153.798 515.619 155.542 513.467 155.542Z" fill="#ADD0D8"/>
<path d="M444.497 70.126H440.928C439.686 70.126 438.68 71.1323 438.68 72.3741V109.623C438.68 110.865 439.686 111.871 440.928 111.871H444.497C445.739 111.871 446.745 110.865 446.745 109.623V72.3741C446.743 71.1323 445.737 70.126 444.497 70.126Z" fill="#ADD0D8"/>
<path d="M500.146 70.126H496.577C495.336 70.126 494.33 71.1323 494.33 72.3741V109.623C494.33 110.865 495.336 111.871 496.577 111.871H500.146C501.387 111.871 502.393 110.865 502.393 109.623V72.3741C502.393 71.1323 501.387 70.126 500.146 70.126Z" fill="#ADD0D8"/>
<path d="M458.347 70.126H449.771C448.1 70.126 446.745 71.4813 446.745 73.1534V108.842C446.745 110.514 448.1 111.87 449.771 111.87H458.347C460.018 111.87 461.373 110.514 461.373 108.842V73.1534C461.373 71.4813 460.018 70.126 458.347 70.126Z" fill="white"/>
<path d="M491.682 73.0388L483.672 69.9721C482.111 69.375 480.362 70.1557 479.763 71.7171L467.009 105.048C466.413 106.61 467.193 108.36 468.754 108.959L476.764 112.026C478.324 112.624 480.074 111.842 480.673 110.281L493.426 76.9492C494.025 75.3879 493.243 73.6373 491.682 73.0388Z" fill="#65B8D1"/>
<path d="M279.159 465.349L249.422 477.438L212.768 387.199C209.43 378.984 213.383 369.619 221.594 366.28C229.806 362.942 239.168 366.896 242.505 375.11L279.159 465.349Z" fill="#8BDEF2"/>
<path opacity="0.25" d="M221.593 366.28L260.368 458.406" stroke="black" stroke-width="1.2855" stroke-miterlimit="10" stroke-linecap="round"/>
<path d="M265.213 476.659L240.779 467.181C239.262 466.593 238.509 464.886 239.096 463.368L258.286 413.855C261.491 405.587 270.788 401.484 279.053 404.69C287.318 407.895 291.418 417.196 288.214 425.464L269.024 474.977C268.437 476.495 266.731 477.248 265.213 476.659Z" fill="#65B8D1"/>
<path opacity="0.25" d="M279.054 404.691L256.063 461.511" stroke="black" stroke-width="1.2855" stroke-miterlimit="10" stroke-linecap="round"/>
<path d="M291.832 465.948L289.094 481.236L284.033 509.462C283.313 514.083 279.333 517.489 274.659 517.489H237.467C232.793 517.489 228.812 514.083 228.092 509.462L220.294 465.948C219.393 460.182 223.851 454.984 229.678 454.984H282.45C288.274 454.983 292.733 460.182 291.832 465.948Z" fill="#65B8D1"/>
<path opacity="0.25" d="M289.094 481.237L284.033 509.462C283.313 514.083 279.333 517.489 274.659 517.489H247.813L243.284 492.2C242.383 486.434 246.841 481.235 252.668 481.235H289.094V481.237Z" fill="black"/>
<path d="M288.59 468.682H223.536C219.179 468.682 215.648 465.148 215.648 460.79V456.021C215.648 451.662 219.18 448.129 223.536 448.129H288.59C292.947 448.129 296.479 451.662 296.479 456.021V460.79C296.479 465.148 292.947 468.682 288.59 468.682Z" fill="#8BDEF2"/>
<path d="M667.147 442.218H635.015L634.88 438.722L632.466 376.001L631.962 362.83C631.62 353.975 638.527 346.514 647.379 346.172C647.587 346.162 647.802 346.162 648.01 346.162C656.591 346.162 663.706 352.946 664.039 361.595L664.597 376.001L664.93 384.811L665.65 403.451L666.523 426.136L667.147 442.218Z" fill="#8BDEF2"/>
<path opacity="0.25" d="M647.381 346.173L652.479 442.217" stroke="black" stroke-width="1.2855" stroke-miterlimit="10" stroke-linecap="round"/>
<path d="M693.831 413.975C693.831 417.715 692.534 421.471 689.877 424.515L674.442 442.219H631.837L634.882 438.723L651.155 420.075L665.655 403.453L665.691 403.408C671.518 396.724 681.657 396.03 688.331 401.868C691.966 405.037 693.831 409.497 693.831 413.975Z" fill="#65B8D1"/>
<path opacity="0.25" d="M688.333 401.863L652.479 442.218" stroke="black" stroke-width="1.2855" stroke-miterlimit="10" stroke-linecap="round"/>
<path d="M291.871 286.614H216.189C213.142 286.614 210.67 284.142 210.67 281.093V192.612C210.67 189.563 213.142 187.091 216.189 187.091H291.871C294.918 187.091 297.39 189.562 297.39 192.612V281.093C297.39 284.143 294.918 286.614 291.871 286.614Z" fill="#8BDEF2"/>
<path d="M227.065 283.01C226.009 283.01 225.149 282.151 225.149 281.093V192.612C225.149 191.555 226.009 190.694 227.065 190.694H291.871C292.927 190.694 293.788 191.554 293.788 192.612V281.093C293.788 282.15 292.927 283.01 291.871 283.01H227.065Z" fill="#0D5375"/>
<path opacity="0.25" d="M227.043 286.614H216.759L243.693 187.092H253.977L227.043 286.614Z" fill="white"/>
<path opacity="0.25" d="M254.399 286.614H233.565L260.5 187.092H281.334L254.399 286.614Z" fill="white"/>
<path d="M217.639 286.614H192.255C190.4 286.614 188.898 285.11 188.898 283.255V190.45C188.898 188.596 190.401 187.092 192.255 187.092H217.639C219.494 187.092 220.996 188.596 220.996 190.45V283.255C220.996 285.11 219.493 286.614 217.639 286.614Z" fill="#65B8D1"/>
<path opacity="0.25" d="M214.638 264.706H209.074C208.129 264.706 207.362 263.939 207.362 262.993C207.362 262.047 208.129 261.28 209.074 261.28H214.638C215.584 261.28 216.35 262.047 216.35 262.993C216.35 263.939 215.584 264.706 214.638 264.706Z" fill="black"/>
<path opacity="0.25" d="M199.646 264.706H194.082C193.136 264.706 192.37 263.939 192.37 262.993C192.37 262.047 193.136 261.28 194.082 261.28H199.646C200.591 261.28 201.358 262.047 201.358 262.993C201.358 263.939 200.591 264.706 199.646 264.706Z" fill="black"/>
<path d="M262.61 286.615C255.217 288.983 254.352 301.128 253.514 312.895C252.64 325.093 251.822 336.607 244.464 339.777C243.933 340.011 243.302 340.182 242.582 340.182C241.465 340.182 240.151 339.749 238.791 338.398C230.704 330.416 227.128 295.344 238.152 268.858C242.169 259.2 249.084 248.381 260.846 241.947C260.486 242.857 260.134 243.767 259.793 244.678C249.607 250.975 243.475 260.758 239.809 269.552C229.237 294.967 232.479 329.642 240.052 337.12C241.286 338.336 242.492 338.669 243.753 338.129C250.103 335.38 250.922 323.886 251.714 312.769C252.479 302.119 253.254 291.183 258.829 286.615H262.61Z" fill="#55C6FF"/>
<path d="M286.259 237.137C286.25 237.633 285.817 238.02 285.349 238.028H284.737C283.36 238.028 282.026 238.073 280.73 238.172C281.054 237.542 281.379 236.919 281.721 236.307C282.703 236.252 283.702 236.226 284.729 236.226H285.367C285.862 236.237 286.259 236.642 286.259 237.137Z" fill="#55C6FF"/>
<path d="M390.984 283.29C390.984 283.786 390.579 284.191 390.083 284.199C389.4 284.199 345.083 284.515 308.755 285.082C288.843 285.389 271.327 285.776 264.709 286.226C263.961 286.281 263.259 286.407 262.61 286.613H258.827C260.358 285.36 262.24 284.586 264.591 284.424C270.985 283.99 287.501 283.622 306.53 283.315C343.263 282.721 389.371 282.395 390.075 282.395C390.551 282.362 390.974 282.795 390.984 283.29Z" fill="#55C6FF"/>
<path d="M262.322 238.308C262.015 239.038 261.718 239.767 261.421 240.497C250.623 244.227 235.755 253.155 232.99 274.308C230.847 290.614 232.279 304.028 233.432 314.812C234.747 327.118 235.62 335.253 229.938 338.956C227.029 340.857 222.111 343.451 216.988 343.451C215.114 343.451 213.205 343.099 211.36 342.244C205.182 339.38 201.247 331.578 199.671 319.047C196.78 296.128 199.365 274.938 206.1 266.307C208.018 263.847 210.225 262.46 212.647 262.163C213.143 262.11 213.593 262.46 213.648 262.956C213.711 263.452 213.359 263.894 212.864 263.955C210.938 264.189 209.136 265.351 207.524 267.415C201.066 275.694 198.626 296.352 201.454 318.819C202.949 330.694 206.533 338.027 212.116 340.613C218.214 343.433 225.282 339.838 228.957 337.451C233.712 334.342 232.892 326.649 231.64 315C230.478 304.127 229.038 290.594 231.199 274.072C234.225 250.992 251.011 241.866 262.322 238.308Z" fill="#003C54"/>
<path d="M204.947 211.043C200.279 211.043 196.496 207.257 196.496 202.588C196.496 197.919 200.28 194.134 204.947 194.134C209.614 194.134 213.398 197.919 213.398 202.588C213.398 207.257 209.614 211.043 204.947 211.043Z" fill="#0D5375"/>
<path d="M207.728 215.858H202.164C201.219 215.858 200.452 215.091 200.452 214.145C200.452 213.199 201.219 212.433 202.164 212.433H207.728C208.674 212.433 209.44 213.199 209.44 214.145C209.44 215.091 208.674 215.858 207.728 215.858Z" fill="#0D5375"/>
<path d="M207.728 220.676H202.164C201.219 220.676 200.452 219.909 200.452 218.963C200.452 218.017 201.219 217.25 202.164 217.25H207.728C208.674 217.25 209.44 218.017 209.44 218.963C209.44 219.909 208.674 220.676 207.728 220.676Z" fill="#0D5375"/>
<path opacity="0.25" d="M215.674 226.387H194.221C193.275 226.387 192.509 225.621 192.509 224.675C192.509 223.729 193.275 222.962 194.221 222.962H215.674C216.619 222.962 217.386 223.729 217.386 224.675C217.386 225.621 216.619 226.387 215.674 226.387Z" fill="black"/>
<path opacity="0.25" d="M215.674 234.496H194.221C193.275 234.496 192.509 233.729 192.509 232.783C192.509 231.837 193.275 231.07 194.221 231.07H215.674C216.619 231.07 217.386 231.837 217.386 232.783C217.386 233.729 216.619 234.496 215.674 234.496Z" fill="black"/>
<path opacity="0.25" d="M215.674 242.604H194.221C193.275 242.604 192.509 241.838 192.509 240.891C192.509 239.945 193.275 239.179 194.221 239.179H215.674C216.619 239.179 217.386 239.945 217.386 240.891C217.386 241.838 216.619 242.604 215.674 242.604Z" fill="black"/>
<path opacity="0.25" d="M215.674 250.712H194.221C193.275 250.712 192.509 249.945 192.509 248.999C192.509 248.053 193.275 247.286 194.221 247.286H215.674C216.619 247.286 217.386 248.053 217.386 248.999C217.386 249.945 216.619 250.712 215.674 250.712Z" fill="black"/>
<path d="M196.642 256.185C196.642 257.116 195.888 257.871 194.956 257.871C194.026 257.871 193.271 257.116 193.271 256.185C193.271 255.254 194.025 254.499 194.956 254.499C195.887 254.499 196.642 255.254 196.642 256.185Z" fill="#0D5375"/>
<path d="M202.82 256.185C202.82 257.116 202.065 257.871 201.135 257.871C200.204 257.871 199.449 257.116 199.449 256.185C199.449 255.254 200.204 254.499 201.135 254.499C202.065 254.499 202.82 255.254 202.82 256.185Z" fill="#0D5375"/>
<path d="M208.999 256.185C208.999 257.116 208.245 257.871 207.313 257.871C206.383 257.871 205.628 257.116 205.628 256.185C205.628 255.254 206.383 254.499 207.313 254.499C208.245 254.499 208.999 255.254 208.999 256.185Z" fill="#0D5375"/>
<path d="M215.178 256.185C215.178 257.116 214.424 257.871 213.492 257.871C212.562 257.871 211.807 257.116 211.807 256.185C211.807 255.254 212.56 254.499 213.492 254.499C214.424 254.499 215.178 255.254 215.178 256.185Z" fill="#0D5375"/>
<path d="M364.316 247.434H277.009C275.147 247.434 273.638 245.924 273.638 244.062V149.014C273.638 147.151 275.147 145.642 277.009 145.642H364.316C366.178 145.642 367.687 147.151 367.687 149.014V244.063C367.686 245.924 366.177 247.434 364.316 247.434Z" fill="#16374C"/>
<path d="M363.193 149.011V244.066C363.193 245.922 361.68 247.435 359.825 247.435H272.517C270.652 247.435 269.149 245.922 269.149 244.066V149.011C269.149 147.155 270.652 145.642 272.517 145.642H359.825C361.68 145.642 363.193 147.154 363.193 149.011Z" fill="#0C1C28"/>
<path opacity="0.25" d="M347.109 166.506V247.434H272.515C270.651 247.434 269.147 245.92 269.147 244.064V163.145H343.741C345.596 163.146 347.109 164.65 347.109 166.506Z" fill="black"/>
<path opacity="0.25" d="M303.972 207.525C303.972 216.462 301.216 224.057 297.388 226.822C296.38 227.553 295.308 227.948 294.183 227.948C293.119 227.948 292.094 227.588 291.13 226.93C287.212 224.255 284.394 216.58 284.394 207.525C284.394 196.237 288.77 187.093 294.183 187.093C299.587 187.093 303.972 196.237 303.972 207.525Z" fill="black"/>
<path d="M300.944 208.555C300.944 213.811 299.323 218.278 297.073 219.905C296.48 220.334 295.85 220.568 295.187 220.568C294.562 220.568 293.959 220.356 293.393 219.97C291.088 218.396 289.43 213.881 289.43 208.556C289.43 201.917 292.004 196.539 295.187 196.539C298.365 196.538 300.944 201.916 300.944 208.555Z" fill="#00B3F9"/>
<path d="M299.298 208.555C299.298 213.811 297.677 218.278 295.427 219.905C294.834 220.334 294.204 220.568 293.541 220.568C292.916 220.568 292.312 220.356 291.745 219.97C289.44 218.396 287.783 213.881 287.783 208.556C287.783 201.917 290.356 196.539 293.54 196.539C296.719 196.538 299.298 201.916 299.298 208.555Z" fill="#008EBA"/>
<path d="M309.484 286.614H248.066C248.066 286.614 249.174 280.514 251.434 271.596C251.92 269.667 252.469 267.614 253.063 265.461C254.829 259.109 257.062 251.902 259.791 244.677C260.133 243.767 260.485 242.858 260.845 241.947V241.938C261.034 241.46 261.223 240.974 261.421 240.496C261.718 239.766 262.015 239.037 262.321 238.307C267.481 226.09 274.073 214.568 282.178 207.947C283.34 206.992 284.529 206.144 285.754 205.406C287.861 204.136 290.068 203.208 292.364 202.677C297.786 201.415 296.426 213.821 294.823 216.289C294.03 217.506 287.465 225.767 281.72 236.307C281.378 236.919 281.053 237.541 280.73 238.172C275.326 248.514 271.03 260.704 273.642 270.55C273.723 270.866 274.065 271.199 274.614 271.551C279.261 274.534 298.983 278.713 306.53 283.318C307.494 283.903 308.251 284.489 308.755 285.084C309.195 285.596 309.447 286.101 309.484 286.614Z" fill="#00B3F9"/>
<path opacity="0.25" d="M294.823 216.291C293.22 218.751 268.148 249.822 273.642 270.552C273.723 270.867 274.065 271.201 274.614 271.553C270.922 270.247 267.446 267.904 267.968 263.707C268.391 236.094 290.652 215.112 288.941 209.832C288.185 207.508 286.924 206.174 285.754 205.409C287.861 204.139 290.068 203.211 292.364 202.68C297.786 201.417 296.426 213.821 294.823 216.291Z" fill="black"/>
<path opacity="0.25" d="M290.436 286.614H248.066C248.066 286.614 249.174 280.514 251.434 271.596C254.037 279.191 260.953 282.479 271.173 283.299C283.376 284.263 290.436 286.614 290.436 286.614Z" fill="black"/>
<path opacity="0.25" d="M276.101 223.064C263.259 236.298 260.476 262.415 257.694 264.938C255.802 266.649 254.01 266.037 253.065 265.461C258.351 246.379 267.924 219.578 282.18 207.946C283.494 211.37 282.386 216.587 276.101 223.064Z" fill="white"/>
<path d="M285.959 239.248H285.233C284.195 239.248 283.353 238.405 283.353 237.367V236.641C283.353 235.602 284.195 234.76 285.233 234.76H285.959C286.997 234.76 287.839 235.602 287.839 236.641V237.367C287.839 238.405 286.997 239.248 285.959 239.248Z" fill="#00B3F9"/>
<path d="M308.944 239.248H307.969C307 239.248 306.214 238.461 306.214 237.491V236.516C306.214 235.546 307 234.76 307.969 234.76H308.944C309.914 234.76 310.7 235.546 310.7 236.516V237.491C310.7 238.461 309.914 239.248 308.944 239.248Z" fill="#00B3F9"/>
<path d="M315.846 239.248H314.87C313.901 239.248 313.115 238.461 313.115 237.491V236.516C313.115 235.546 313.901 234.76 314.87 234.76H315.846C316.815 234.76 317.601 235.546 317.601 236.516V237.491C317.601 238.461 316.815 239.248 315.846 239.248Z" fill="#00B3F9"/>
<path d="M322.747 239.248H321.771C320.801 239.248 320.015 238.461 320.015 237.491V236.516C320.015 235.546 320.801 234.76 321.771 234.76H322.747C323.717 234.76 324.503 235.546 324.503 236.516V237.491C324.503 238.461 323.717 239.248 322.747 239.248Z" fill="#00B3F9"/>
<path d="M305.898 171.812H285.355V178.556H305.898V171.812Z" fill="#00B3F9"/>
<defs>
<linearGradient id="paint0_linear_652_200" x1="322.76" y1="267.344" x2="440.995" y2="278.264" gradientUnits="userSpaceOnUse">
<stop stop-color="#FFA894"/>
<stop offset="1" stop-color="#FC7B65"/>
</linearGradient>
<linearGradient id="paint1_linear_652_200" x1="401.09" y1="284.521" x2="519.215" y2="295.431" gradientUnits="userSpaceOnUse">
<stop stop-color="#FFA894"/>
<stop offset="1" stop-color="#FC7B65"/>
</linearGradient>
<linearGradient id="paint2_linear_652_200" x1="476.374" y1="232.13" x2="490.079" y2="190.389" gradientUnits="userSpaceOnUse">
<stop stop-color="#FFA894"/>
<stop offset="1" stop-color="#FC7B65"/>
</linearGradient>
<linearGradient id="paint3_linear_652_200" x1="332.715" y1="251.033" x2="330.788" y2="298.558" gradientUnits="userSpaceOnUse">
<stop stop-color="#FFB000"/>
<stop offset="1" stop-color="#FF6700"/>
</linearGradient>
<linearGradient id="paint4_linear_652_200" x1="366.827" y1="271.159" x2="363.093" y2="332.046" gradientUnits="userSpaceOnUse">
<stop stop-color="#4C1710"/>
<stop offset="1" stop-color="#723328"/>
</linearGradient>
</defs>
</svg>
