<svg width="300" height="108" viewBox="0 0 300 108" fill="none" xmlns="http://www.w3.org/2000/svg">
<rect width="300" height="108" fill="white"/>
<path d="M160.185 40.0782C160.767 40.7523 161.029 50.7061 160.874 52.142C160.676 53.9819 159.749 55.6319 157.693 55.5687C155.446 55.5005 153.144 52.7407 151.645 51.2294C150.72 50.2948 148.143 46.6467 146.907 46.7514C144.41 46.9607 146.744 53.6606 146.269 54.7729C145.88 55.6831 141.662 55.5492 141.338 55.0819C140.735 54.2155 141.472 49.4649 141.523 48.1605C141.582 46.7003 141.329 40.7061 142.248 39.9735C143.032 39.3505 146.062 39.6498 147.016 40.1828C148.235 40.8642 151.007 44.9772 152.258 46.3133C153.319 47.445 154.636 48.9831 156.077 49.5088C158.16 49.0342 155.505 41.6528 155.992 40.2023C156.276 39.3554 159.742 39.5695 160.182 40.0806L160.185 40.0782Z" fill="url(#paint0_linear_192_6455)"/>
<path d="M203.439 55.3667C203.201 55.2936 202.991 54.8702 202.979 54.5976C202.906 49.7375 203.174 44.875 203.639 40.0441C204.062 39.3456 217.959 39.7472 219.906 39.825C220.307 40.5989 221.003 45.021 220.035 45.223C219.735 45.2863 218.11 43.7336 217.501 43.461C215.693 42.6506 209.565 42.2417 208.049 43.3782C206.73 44.3639 207.087 45.5734 208.686 45.8192C210.234 46.0577 216.445 45.4931 217.136 45.975C217.698 46.3668 217.328 48.1994 217.423 48.9149C214.744 48.562 212.042 47.9487 209.307 48.326C206.581 48.7032 206.469 51.1417 209.061 51.8962C211.429 52.5849 216.282 52.5898 218.455 51.3267C219.589 50.6696 221.237 47.1992 221.728 49.9882C222.042 51.7648 222.081 53.5657 222.035 55.3667H203.442H203.439Z" fill="url(#paint1_linear_192_6455)"/>
<path d="M121.379 55.3665C121.109 55.2838 120.97 54.8774 120.919 54.5975C120.498 52.2928 121.109 48.6836 121.238 46.3132C121.353 44.1958 120.953 42.0079 121.713 39.9636L137.627 39.7349C138.483 40.022 138.462 44.2396 138.435 45.2229C136.936 45.016 136.383 43.731 134.757 43.2175C133.183 42.7186 126.252 42.227 125.368 43.6799C124.869 44.4976 125.485 45.8386 126.295 45.8386H135.054C135.205 45.8386 135.694 48.3283 135.074 48.7834C134.499 49.2044 132.681 48.3696 131.825 48.3015C130.44 48.1895 123.465 47.8561 125.273 50.8423C126.578 52.9937 134.324 52.5288 136.393 51.3266C137.371 50.7571 139.36 47.1528 139.681 49.9734C139.771 50.7717 140.304 55.3665 139.513 55.3665H121.379Z" fill="url(#paint2_linear_192_6455)"/>
<path d="M101.557 41.0767C101.63 40.6337 102.085 39.6602 102.628 39.6894C104.562 39.9085 117.943 39.2733 118.417 40.0472C118.688 40.4901 118.493 42.5709 117.984 43.0601L108.617 50.5949C107.239 51.9796 108.269 52.2157 109.688 52.3106C111.842 52.4542 114.738 52.0989 116.463 50.7579C117.059 50.2931 118.417 48.0589 119.075 48.6065C119.479 48.9448 119.286 53.3742 119.719 54.2965C119.79 54.6153 119.483 55.3698 119.23 55.3698H101.097C100.435 55.3698 100.466 52.6002 101.036 52.077L110.306 44.9097C113.859 41.7192 106.943 42.6829 105.132 43.4252C103.594 44.0555 103.019 45.3405 101.557 45.5352C101.715 44.1626 101.34 42.3884 101.557 41.0791V41.0767Z" fill="url(#paint3_linear_192_6455)"/>
<path d="M248.419 40.0436C248.93 41.8445 247.333 44.1054 249.083 45.371C250.061 46.0767 256.442 46.0889 257.494 45.4975C259.504 44.3634 257.835 41.8591 258.341 40.0436C259.66 39.5106 261.237 39.5155 262.558 40.0436L263.172 55.0182C262.906 55.4441 258.737 55.5511 258.28 55.2348C257.319 54.5679 259.322 50.949 257.985 49.6859C256.885 48.6443 249.387 48.5348 248.611 49.8319C246.997 52.526 251.879 56.1936 244.912 55.3881C242.692 55.1325 243.821 52.5406 243.851 51.2191C243.899 48.9899 243.717 46.6462 243.841 44.4486C243.887 43.6479 244.065 41.0706 244.22 40.5279C244.6 39.2137 247.423 39.6201 248.419 40.0509V40.0436Z" fill="url(#paint4_linear_192_6455)"/>
<path d="M175.86 46.9973C176.946 45.9095 175.266 41.1881 175.975 40.0442C176.245 39.6111 179.613 39.3239 180.083 40.3046C180.689 41.5726 180.178 45.34 180.584 46.5641C180.981 47.7615 183.495 45.761 183.015 49.3872C182.782 51.1517 181.484 50.0443 180.981 50.7331C179.698 52.4902 183.431 56.1919 176.685 55.379C174.658 55.1356 176.25 52.8674 175.931 51.2149C175.651 49.7596 173.762 50.7355 172.716 50.7671C170.698 50.8304 164.222 51.0227 162.718 50.2926C160.92 49.4213 162.93 44.2984 163.585 42.8625C164.035 41.872 164.801 39.9177 165.95 39.6987C172.616 38.4283 165.093 45.2767 167.019 46.9146C167.795 47.5741 175.225 47.6277 175.86 46.9925V46.9973Z" fill="url(#paint5_linear_192_6455)"/>
<path d="M240.869 49.0099C241.071 48.8346 241.363 48.8152 241.551 48.6132C242.169 48.6716 242.76 53.6728 242.016 54.2959C241.487 54.7364 237.839 55.2766 236.936 55.3618C230.894 55.9386 221.852 54.8118 222.984 46.6321C223.498 42.9183 227.608 40.1366 231.134 39.7229C233.06 39.499 239.932 39.7788 241.12 41.3632C241.354 41.6747 241.137 45.5467 240.945 45.8461C240.706 46.2208 240.536 46.1916 240.161 45.9969C239.548 45.6757 238.686 44.3542 237.752 43.7944C233.914 41.497 227.258 42.7747 227.542 48.1483C227.8 53.0182 235.649 53.0036 238.847 51.1248C239.966 50.4677 240.2 49.5867 240.869 49.0074V49.0099Z" fill="url(#paint6_linear_192_6455)"/>
<path d="M183.614 40.7697C183.645 40.6164 184.086 39.935 184.229 39.8473C185.656 38.9858 198.286 40.1199 200.91 39.7768C201.166 39.879 201.679 39.8571 201.759 40.2051C201.898 40.7989 201.903 43.605 201.896 44.4616C201.891 44.8851 201.849 45.328 201.282 45.2356C200.53 45.1114 199.447 43.5295 198.08 43.2083C197.43 43.055 195.488 42.8359 195.118 43.364C194.371 44.4349 195.478 52.7727 195.476 54.6151C195.313 55.7078 190.452 55.8416 190.109 54.5347C190.121 52.6097 191.355 44.3108 190.379 43.2253C189.513 42.2591 186.661 43.4857 185.658 44.0479C184.94 44.4495 184.636 45.4424 183.611 45.2283C183.796 43.9116 183.356 41.989 183.611 40.7722L183.614 40.7697Z" fill="url(#paint7_linear_192_6455)"/>
<path d="M49.9454 19H92.3697L57.008 60.222H69.7704L69.9018 46.4035L93.4673 19H117.035L104.324 34.1449L89.3276 34.2228L89.3957 60.222H110.897L99.7025 72.8481H25L58.2711 34.6073L35.8811 34.1887L49.9454 19Z" fill="url(#paint8_linear_192_6455)"/>
<path d="M90.6882 75.4912H71.019V88.6746H90.6882V75.4912Z" fill="url(#paint9_linear_192_6455)"/>
<path d="M128.411 64.5885L128.554 66.5665H127.846C127.474 65.9146 127.053 65.4577 126.578 65.2014C126.103 64.9423 125.529 64.8142 124.857 64.8142C124.283 64.8142 123.812 64.9256 123.44 65.1485C123.068 65.3713 122.884 65.6304 122.884 65.923C122.884 66.2851 123.077 66.5359 123.467 66.6696C123.857 66.8061 124.525 66.937 125.475 67.0624C126.932 67.2574 127.909 67.5499 128.406 67.94C128.904 68.33 129.155 68.8259 129.155 69.4249C129.155 70.1325 128.828 70.7426 128.169 71.2552C127.51 71.7678 126.591 72.0241 125.403 72.0241C124.561 72.0241 123.799 71.8598 123.122 71.5282C122.79 71.6898 122.494 71.8458 122.23 72.0018H121.638V69.8539H122.329C122.849 71.063 123.857 71.6675 125.354 71.6675C126.143 71.6675 126.753 71.5227 127.174 71.2329C127.595 70.9432 127.81 70.62 127.81 70.2606C127.81 70.0601 127.716 69.8762 127.532 69.7174C127.349 69.5558 127.129 69.4276 126.883 69.3329C126.636 69.2382 125.95 69.1184 124.83 68.9735C123.709 68.8287 122.889 68.5612 122.364 68.1684C121.84 67.7756 121.58 67.2881 121.58 66.703C121.58 66.0734 121.898 65.5413 122.539 65.1039C123.176 64.6693 123.974 64.4492 124.928 64.4492C125.654 64.4492 126.376 64.608 127.093 64.9228C127.322 64.8392 127.568 64.7278 127.833 64.5885H128.406H128.411Z" fill="#0D72B9"/>
<path d="M132.942 68.2102C132.942 67.107 133.41 66.2043 134.345 65.5023C135.28 64.8002 136.402 64.4492 137.713 64.4492C138.927 64.4492 140.014 64.778 140.973 65.4382C141.932 66.0985 142.411 67.0373 142.411 68.252C142.411 69.3914 141.96 70.3052 141.053 70.9933C140.146 71.6815 139.039 72.0241 137.729 72.0241C136.314 72.0241 135.164 71.6592 134.277 70.9292C133.39 70.1993 132.946 69.2939 132.946 68.2074L132.942 68.2102ZM139.471 68.2436C139.471 67.1153 139.439 66.3715 139.379 66.0121C139.319 65.6527 139.163 65.363 138.915 65.1429C138.668 64.9228 138.256 64.8142 137.681 64.8142C137.197 64.8142 136.814 64.9033 136.526 65.0816C136.238 65.2599 136.063 65.5441 135.991 65.9369C135.919 66.3297 135.883 67.0958 135.883 68.2353C135.883 69.3747 135.915 70.1102 135.975 70.4751C136.035 70.8401 136.194 71.1298 136.454 71.3471C136.714 71.5644 137.121 71.6703 137.681 71.6703C138.144 71.6703 138.52 71.5839 138.811 71.4084C139.103 71.2357 139.287 70.9515 139.359 70.5587C139.431 70.1659 139.471 69.3942 139.471 68.2436Z" fill="#0D72B9"/>
<path d="M157.389 72.0241H148.092V71.6577H149.594V64.8157H148.092V64.4492H153.954V64.8157H152.301V71.6577H153.352C153.933 71.6577 154.364 71.6377 154.645 71.5947C154.921 71.5518 155.23 71.4315 155.569 71.2283C155.908 71.025 156.193 70.7731 156.427 70.4668C156.661 70.1605 156.871 69.8227 157.05 69.4534H157.561L157.389 72.0241Z" fill="#0D72B9"/>
<path d="M164.826 64.8109V69.6395C164.826 70.4137 165.001 70.9307 165.35 71.1935C165.699 71.4562 166.17 71.5862 166.767 71.5862C167.218 71.5862 167.623 71.5184 167.986 71.3799C168.349 71.2415 168.632 71.0352 168.841 70.7583C169.047 70.4814 169.152 70.0096 169.152 69.3456V65.3986C169.152 65.1415 169.131 64.9804 169.089 64.9126C169.047 64.8448 168.852 64.8109 168.502 64.8109H167.867V64.4492H170.817V64.8109H170.384C170.039 64.8109 169.829 64.8448 169.749 64.9098C169.669 64.9747 169.63 65.1527 169.63 65.4409V69.3089C169.63 69.8005 169.571 70.23 169.456 70.6001C169.34 70.9702 169.03 71.3008 168.527 71.589C168.024 71.88 167.249 72.0241 166.202 72.0241C165.65 72.0241 165.116 71.9733 164.592 71.8715C164.068 71.7698 163.646 71.589 163.314 71.3291C162.983 71.0691 162.777 70.8035 162.689 70.5295C162.606 70.2554 162.56 69.939 162.56 69.5745V64.8137H161.349V64.452H166.09V64.8137H164.823L164.826 64.8109Z" fill="#0D72B9"/>
<path d="M176.558 64.4492H185.898L185.967 66.9227H185.455C185.041 65.517 184.18 64.8157 182.87 64.8157H182.61V71.6577H184.32V72.0241H178.153V71.6577H179.855V64.8157H179.603C178.294 64.8157 177.432 65.517 177.01 66.9227H176.498L176.566 64.4492H176.558Z" fill="#0D72B9"/>
<path d="M195.321 64.8157V71.6577H197.329V72.0241H189.754V71.6577H191.696V64.8157H189.754V64.4492H197.329V64.8157H195.321Z" fill="#0D72B9"/>
<path d="M201.117 68.2102C201.117 67.107 201.584 66.2043 202.519 65.5023C203.454 64.8002 204.577 64.4492 205.887 64.4492C207.102 64.4492 208.188 64.778 209.147 65.4382C210.106 66.0985 210.585 67.0373 210.585 68.252C210.585 69.3914 210.134 70.3052 209.227 70.9933C208.32 71.6815 207.213 72.0241 205.903 72.0241C204.489 72.0241 203.338 71.6592 202.451 70.9292C201.564 70.1993 201.121 69.2939 201.121 68.2074L201.117 68.2102ZM207.645 68.2436C207.645 67.1153 207.613 66.3715 207.553 66.0121C207.493 65.6527 207.337 65.363 207.09 65.1429C206.842 64.9228 206.43 64.8142 205.855 64.8142C205.372 64.8142 204.988 64.9033 204.7 65.0816C204.413 65.2599 204.237 65.5441 204.165 65.9369C204.093 66.3297 204.057 67.0958 204.057 68.2353C204.057 69.3747 204.089 70.1102 204.149 70.4751C204.209 70.8401 204.369 71.1298 204.628 71.3471C204.888 71.5644 205.296 71.6703 205.855 71.6703C206.318 71.6703 206.694 71.5839 206.986 71.4084C207.277 71.2357 207.461 70.9515 207.533 70.5587C207.605 70.1659 207.645 69.3942 207.645 68.2436Z" fill="#0D72B9"/>
<path d="M220.049 64.452L224.012 68.8439V65.627C224.012 65.288 223.967 65.0677 223.876 64.9661C223.786 64.8644 223.551 64.8136 223.17 64.8136H222.701V64.452H225.735V64.8136H225.384C225.006 64.8136 224.772 64.8559 224.673 64.9407C224.575 65.0254 224.53 65.1977 224.53 65.4547V72.0241H223.993L218.073 65.4547V70.8548C218.073 71.157 218.114 71.3491 218.197 71.4338C218.28 71.5186 218.515 71.5609 218.9 71.5609H219.482V71.9224H216.312V71.5609H216.709C217.113 71.5609 217.351 71.5101 217.43 71.4112C217.51 71.3124 217.551 71.0441 217.551 70.6148V65.4547C217.551 65.1723 217.517 64.9943 217.442 64.9209C217.37 64.8474 217.158 64.8107 216.811 64.8107H216.267V64.4492H220.045L220.049 64.452Z" fill="#0D72B9"/>
<path d="M104.018 86.0752C103.715 86.2692 103.319 86.3663 102.829 86.3663C102.192 86.3663 101.69 86.1179 101.324 85.6251C100.959 85.1283 100.777 84.4687 100.777 83.646C100.777 82.769 100.982 82.0549 101.393 81.5078C101.803 80.9606 102.335 80.689 102.992 80.689C103.4 80.689 103.738 80.7549 104.018 80.8907V82.0821C103.738 81.8609 103.423 81.7522 103.067 81.7522C102.677 81.7522 102.362 81.9152 102.121 82.2373C101.88 82.5594 101.761 83.0018 101.761 83.5528C101.761 84.1039 101.874 84.5074 102.1 84.8218C102.326 85.1361 102.63 85.2952 103.013 85.2952C103.397 85.2952 103.712 85.1788 104.015 84.9421V86.0713L104.018 86.0752Z" fill="#FAAF3B"/>
<path d="M108.23 86.2684H107.154L106.509 84.8558C106.462 84.7472 106.414 84.6541 106.369 84.5687C106.325 84.4833 106.28 84.4135 106.236 84.3514C106.191 84.2893 106.143 84.2466 106.093 84.2117C106.042 84.1806 105.989 84.1651 105.932 84.1651H105.68V86.2684H104.743V80.7773H106.227C107.235 80.7773 107.74 81.274 107.74 82.2714C107.74 82.4615 107.716 82.64 107.675 82.803C107.633 82.966 107.568 83.1096 107.487 83.2415C107.407 83.3696 107.309 83.4821 107.193 83.5791C107.077 83.6762 106.949 83.746 106.809 83.8003V83.8158C106.872 83.843 106.931 83.8818 106.988 83.94C107.047 83.9982 107.101 84.0642 107.157 84.1418C107.214 84.2194 107.264 84.3009 107.312 84.3902C107.362 84.4794 107.407 84.5648 107.446 84.6502L108.23 86.2723V86.2684ZM105.68 81.7048V83.2338H106.087C106.289 83.2338 106.45 83.1561 106.572 83.0048C106.696 82.8496 106.756 82.6555 106.756 82.4266C106.756 81.9454 106.539 81.7087 106.105 81.7087H105.683L105.68 81.7048Z" fill="#FAAF3B"/>
<path d="M112.275 86.2684H111.255L110.96 85.046H109.483L109.192 86.2684H108.178L109.691 80.7773H110.8L112.278 86.2684H112.275ZM110.743 84.0991L110.297 82.252C110.265 82.1161 110.241 81.9493 110.229 81.7591H110.205C110.196 81.9182 110.173 82.0812 110.134 82.2364L109.682 84.0952H110.746L110.743 84.0991Z" fill="#FAAF3B"/>
<path d="M115.193 81.7863H113.727V83.1329H115.074V84.1341H113.727V86.2684H112.791V80.7773H115.193V81.7824V81.7863Z" fill="#FAAF3B"/>
<path d="M118.798 81.7873H117.612V86.2694H116.672V81.7873H115.492V80.7822H118.795V81.7873H118.798Z" fill="#FAAF3B"/>
<path d="M120.641 80.7773V81.7359H120.294V85.3099H120.641V86.2684H119.009V85.3099H119.357V81.7359H119.009V80.7773H120.641Z" fill="#FAAF3B"/>
<path d="M124.974 86.2684H124.029L122.317 82.8185C122.215 82.6167 122.147 82.4654 122.108 82.3645H122.097C122.111 82.5585 122.12 82.8535 122.12 83.2532V86.2684H121.237V80.7773H122.245L123.895 84.1185C123.969 84.2699 124.041 84.4173 124.103 84.5648H124.115C124.1 84.4367 124.091 84.1845 124.091 83.812V80.7773H124.974V86.2684Z" fill="#FAAF3B"/>
<path d="M129.336 85.9006C128.931 86.211 128.426 86.3624 127.822 86.3624C127.154 86.3624 126.627 86.1179 126.241 85.6289C125.854 85.14 125.664 84.4686 125.664 83.611C125.664 82.7534 125.875 82.0433 126.294 81.5C126.717 80.9567 127.275 80.6851 127.974 80.6851C128.414 80.6851 128.804 80.7665 129.139 80.9257V82.0859C128.818 81.8415 128.426 81.7173 127.962 81.7173C127.573 81.7173 127.258 81.8842 127.014 82.2179C126.77 82.5516 126.648 82.994 126.648 83.5528C126.648 84.1116 126.758 84.554 126.978 84.8606C127.198 85.171 127.492 85.3224 127.867 85.3224C128.09 85.3224 128.268 85.2797 128.399 85.1943V84.1232H127.567V83.1337H129.336V85.8928V85.9006Z" fill="#FAAF3B"/>
<path d="M134.704 81.7873H133.518V86.2694H132.578V81.7873H131.398V80.7822H134.701V81.7873H134.704Z" fill="#FAAF3B"/>
<path d="M137.755 86.2684H135.263V80.7773H137.659V81.7824H136.2V83.0048H137.558V84.006H136.2V85.2633H137.758V86.2645L137.755 86.2684Z" fill="#FAAF3B"/>
<path d="M141.402 86.0752C141.098 86.2692 140.703 86.3663 140.212 86.3663C139.576 86.3663 139.074 86.1179 138.708 85.6251C138.342 85.1283 138.161 84.4687 138.161 83.646C138.161 82.769 138.366 82.0549 138.777 81.5078C139.187 80.9606 139.719 80.689 140.376 80.689C140.783 80.689 141.122 80.7549 141.402 80.8907V82.0821C141.122 81.8609 140.807 81.7522 140.45 81.7522C140.061 81.7522 139.746 81.9152 139.505 82.2373C139.264 82.5594 139.145 83.0018 139.145 83.5528C139.145 84.1039 139.258 84.5074 139.484 84.8218C139.71 85.1361 140.013 85.2952 140.397 85.2952C140.78 85.2952 141.095 85.1788 141.399 84.9421V86.0713L141.402 86.0752Z" fill="#FAAF3B"/>
<path d="M145.72 86.2684H144.781V84.0332H143.06V86.2684H142.123V80.7773H143.06V82.966H144.781V80.7773H145.72V86.2684Z" fill="#FAAF3B"/>
<path d="M150.41 86.2684H149.464L147.752 82.8185C147.651 82.6167 147.583 82.4654 147.544 82.3645H147.532C147.547 82.5585 147.556 82.8535 147.556 83.2532V86.2684H146.673V80.7773H147.681L149.331 84.1185C149.405 84.2699 149.476 84.4173 149.539 84.5648H149.551C149.536 84.4367 149.527 84.1845 149.527 83.812V80.7773H150.41V86.2684Z" fill="#FAAF3B"/>
<path d="M153.117 86.3662C152.523 86.3662 152.038 86.1101 151.663 85.5979C151.289 85.0856 151.102 84.4182 151.102 83.5955C151.102 82.7262 151.292 82.0277 151.672 81.4883C152.053 80.9489 152.558 80.6851 153.186 80.6851C153.78 80.6851 154.259 80.9412 154.625 81.4534C154.99 81.9656 155.175 82.6448 155.175 83.483C155.175 84.3212 154.984 85.0429 154.604 85.5707C154.223 86.0985 153.73 86.3624 153.117 86.3624V86.3662ZM153.159 81.7522C152.832 81.7522 152.57 81.9152 152.377 82.2412C152.184 82.5671 152.089 82.9979 152.089 83.5334C152.089 84.0689 152.184 84.5074 152.377 84.8218C152.57 85.14 152.823 85.2952 153.135 85.2952C153.447 85.2952 153.715 85.14 153.902 84.8334C154.092 84.5268 154.188 84.1 154.188 83.5528C154.188 83.0057 154.095 82.54 153.911 82.2256C153.727 81.9074 153.477 81.7522 153.159 81.7522Z" fill="#FAAF3B"/>
<path d="M158.338 86.2684H155.861V80.7773H156.798V85.2633H158.338V86.2645V86.2684Z" fill="#FAAF3B"/>
<path d="M160.651 86.3662C160.057 86.3662 159.572 86.1101 159.198 85.5979C158.823 85.0856 158.636 84.4182 158.636 83.5955C158.636 82.7262 158.826 82.0277 159.207 81.4883C159.587 80.9489 160.093 80.6851 160.72 80.6851C161.314 80.6851 161.793 80.9412 162.159 81.4534C162.524 81.9656 162.709 82.6448 162.709 83.483C162.709 84.3212 162.518 85.0429 162.138 85.5707C161.757 86.0985 161.264 86.3624 160.651 86.3624V86.3662ZM160.693 81.7522C160.366 81.7522 160.104 81.9152 159.911 82.2412C159.718 82.5671 159.623 82.9979 159.623 83.5334C159.623 84.0689 159.718 84.5074 159.911 84.8218C160.104 85.14 160.357 85.2952 160.669 85.2952C160.981 85.2952 161.249 85.14 161.436 84.8334C161.627 84.5268 161.722 84.1 161.722 83.5528C161.722 83.0057 161.63 82.54 161.445 82.2256C161.261 81.9074 161.011 81.7522 160.693 81.7522Z" fill="#FAAF3B"/>
<path d="M166.807 85.9006C166.403 86.211 165.898 86.3624 165.294 86.3624C164.625 86.3624 164.099 86.1179 163.713 85.6289C163.326 85.14 163.136 84.4686 163.136 83.611C163.136 82.7534 163.347 82.0433 163.766 81.5C164.188 80.9567 164.747 80.6851 165.446 80.6851C165.886 80.6851 166.275 80.7665 166.611 80.9257V82.0859C166.29 81.8415 165.898 81.7173 165.434 81.7173C165.044 81.7173 164.729 81.8842 164.485 82.2179C164.242 82.5516 164.12 82.994 164.12 83.5528C164.12 84.1116 164.23 84.554 164.45 84.8606C164.67 85.171 164.964 85.3224 165.339 85.3224C165.562 85.3224 165.74 85.2797 165.871 85.1943V84.1232H165.038V83.1337H166.807V85.8928V85.9006Z" fill="#FAAF3B"/>
<path d="M170.75 80.7773L169.398 84.3164V86.2684H168.461V84.3397L167.141 80.7812H168.211L168.88 82.8302C168.892 82.869 168.925 83.0164 168.975 83.2764H168.987C169.011 83.0941 169.041 82.9466 169.077 82.8418L169.757 80.7773H170.747H170.75Z" fill="#FAAF3B"/>
<path d="M175.774 81.7873H174.588V86.2694H173.648V81.7873H172.468V80.7822H175.771V81.7873H175.774Z" fill="#FAAF3B"/>
<path d="M179.929 86.2684H178.989V84.0332H177.268V86.2684H176.332V80.7773H177.268V82.966H178.989V80.7773H179.929V86.2684Z" fill="#FAAF3B"/>
<path d="M184.537 86.2684H183.517L183.223 85.046H181.746L181.454 86.2684H180.44L181.954 80.7773H183.063L184.54 86.2684H184.537ZM183.006 84.0991L182.56 82.252C182.527 82.1161 182.504 81.9493 182.492 81.7591H182.468C182.459 81.9182 182.435 82.0812 182.397 82.2364L181.945 84.0952H183.009L183.006 84.0991Z" fill="#FAAF3B"/>
<path d="M187.972 81.7873H186.786V86.2694H185.846V81.7873H184.666V80.7822H187.969V81.7873H187.972Z" fill="#FAAF3B"/>
<path d="M194.909 86.2694H193.984V82.9864C193.984 82.6333 193.996 82.2413 194.02 81.8106H193.996C193.949 82.1482 193.904 82.3888 193.865 82.5401L192.89 86.2733H192.126L191.136 82.5789C191.109 82.478 191.065 82.2258 191.005 81.8145H190.979C191.002 82.3539 191.017 82.8312 191.017 83.2386V86.2733H190.173V80.7822H191.543L192.394 84.038C192.462 84.298 192.51 84.5619 192.542 84.8219H192.56C192.614 84.5192 192.667 84.2553 192.727 84.0303L193.577 80.7822H194.912V86.2733L194.909 86.2694Z" fill="#FAAF3B"/>
<path d="M197.606 86.3662C197.011 86.3662 196.526 86.1101 196.152 85.5979C195.777 85.0856 195.59 84.4182 195.59 83.5955C195.59 82.7262 195.78 82.0277 196.161 81.4883C196.541 80.9489 197.047 80.6851 197.674 80.6851C198.269 80.6851 198.747 80.9412 199.113 81.4534C199.479 81.9656 199.663 82.6448 199.663 83.483C199.663 84.3212 199.473 85.0429 199.092 85.5707C198.712 86.0985 198.218 86.3624 197.606 86.3624V86.3662ZM197.647 81.7522C197.32 81.7522 197.059 81.9152 196.865 82.2412C196.672 82.5671 196.577 82.9979 196.577 83.5334C196.577 84.0689 196.672 84.5074 196.865 84.8218C197.059 85.14 197.311 85.2952 197.623 85.2952C197.936 85.2952 198.203 85.14 198.39 84.8334C198.581 84.5268 198.676 84.1 198.676 83.5528C198.676 83.0057 198.584 82.54 198.399 82.2256C198.215 81.9074 197.965 81.7522 197.647 81.7522Z" fill="#FAAF3B"/>
<path d="M203.811 80.7773L202.378 86.2684H201.317L199.901 80.7773H200.909L201.774 84.5997C201.822 84.8054 201.849 84.9878 201.858 85.1469H201.875C201.887 84.9761 201.92 84.7899 201.965 84.5842L202.827 80.7773H203.805H203.811Z" fill="#FAAF3B"/>
<path d="M206.803 86.2684H204.312V80.7773H206.708V81.7824H205.249V83.0048H206.607V84.006H205.249V85.2633H206.806V86.2645L206.803 86.2684Z" fill="#FAAF3B"/>
<path d="M207.276 86.0597V84.8334C207.446 85.0197 207.627 85.1594 207.823 85.2525C208.019 85.3457 208.219 85.3922 208.421 85.3922C208.54 85.3922 208.641 85.3767 208.73 85.3496C208.819 85.3224 208.89 85.2836 208.95 85.2331C209.009 85.1827 209.054 85.1245 209.081 85.0585C209.11 84.9925 209.125 84.9188 209.125 84.8373C209.125 84.7287 209.102 84.6355 209.057 84.5502C209.009 84.4648 208.947 84.3872 208.867 84.3173C208.786 84.2475 208.691 84.1776 208.581 84.1116C208.471 84.0457 208.352 83.9797 208.224 83.9098C207.9 83.7313 207.657 83.514 207.499 83.254C207.339 82.9979 207.261 82.6836 207.261 82.3188C207.261 82.0317 207.306 81.7872 207.392 81.5815C207.478 81.3758 207.597 81.209 207.746 81.0731C207.894 80.9412 208.07 80.8442 208.266 80.7821C208.462 80.72 208.673 80.689 208.893 80.689C209.113 80.689 209.301 80.7045 209.47 80.7394C209.637 80.7743 209.791 80.8287 209.931 80.8985V82.0433C209.863 81.9773 209.785 81.923 209.702 81.8764C209.619 81.8299 209.536 81.7872 209.449 81.7561C209.363 81.7251 209.277 81.7018 209.191 81.6863C209.104 81.6708 209.024 81.663 208.947 81.663C208.84 81.663 208.745 81.6785 208.659 81.7018C208.572 81.729 208.498 81.7678 208.439 81.8143C208.379 81.8609 208.332 81.9191 208.299 81.989C208.266 82.0549 208.248 82.1325 208.248 82.2179C208.248 82.3111 208.266 82.3925 208.305 82.4663C208.34 82.54 208.394 82.6098 208.462 82.6719C208.531 82.7379 208.611 82.8 208.709 82.8621C208.807 82.9242 208.914 82.9901 209.036 83.0561C209.203 83.1492 209.351 83.2463 209.485 83.3472C209.616 83.4519 209.732 83.5684 209.827 83.6964C209.922 83.8284 209.993 83.9758 210.044 84.1427C210.094 84.3095 210.118 84.5036 210.118 84.7248C210.118 85.0313 210.074 85.2875 209.987 85.497C209.898 85.7066 209.779 85.8734 209.631 86.0015C209.482 86.1295 209.304 86.2227 209.105 86.277C208.905 86.3313 208.694 86.3624 208.471 86.3624C208.248 86.3624 208.025 86.3352 207.82 86.2848C207.615 86.2343 207.437 86.1567 207.285 86.0558L207.276 86.0597Z" fill="#FAAF3B"/>
<path d="M212.434 86.2723V80.7812H213.947C214.411 80.7812 214.768 80.8938 215.018 81.1189C215.267 81.3439 215.392 81.6583 215.392 82.0696C215.392 82.3645 215.318 82.6245 215.163 82.8457C215.012 83.0669 214.818 83.2221 214.584 83.3075V83.323C214.878 83.3696 215.116 83.5171 215.291 83.7577C215.467 83.9982 215.556 84.2893 215.556 84.6347C215.556 85.1391 215.419 85.535 215.145 85.8299C214.872 86.1248 214.5 86.2723 214.031 86.2723H212.434ZM213.368 81.6932V82.9932H213.778C213.971 82.9932 214.123 82.9311 214.236 82.8069C214.346 82.6827 214.402 82.512 214.402 82.2947C214.402 81.8911 214.173 81.6893 213.718 81.6893H213.368V81.6932ZM213.368 83.9129V85.3603H213.876C214.093 85.3603 214.262 85.2944 214.384 85.1624C214.506 85.0305 214.569 84.8481 214.569 84.6192C214.569 84.3902 214.509 84.2272 214.387 84.103C214.265 83.9789 214.099 83.9168 213.882 83.9168H213.368V83.9129Z" fill="#FAAF3B"/>
<path d="M219.917 83.851C219.917 85.5002 219.335 86.3229 218.172 86.3229C217.01 86.3229 216.48 85.5157 216.48 83.9053V80.7348H217.42V83.9208C217.42 84.8095 217.682 85.2518 218.208 85.2518C218.734 85.2518 218.981 84.8211 218.981 83.9635V80.731H219.917V83.8432V83.851Z" fill="#FAAF3B"/>
<path d="M220.859 86.0597V84.8334C221.029 85.0197 221.21 85.1594 221.406 85.2525C221.602 85.3457 221.802 85.3922 222.004 85.3922C222.123 85.3922 222.224 85.3767 222.313 85.3496C222.402 85.3224 222.473 85.2836 222.533 85.2331C222.592 85.1827 222.637 85.1245 222.664 85.0585C222.693 84.9925 222.708 84.9188 222.708 84.8373C222.708 84.7287 222.685 84.6355 222.64 84.5502C222.592 84.4648 222.53 84.3872 222.45 84.3173C222.369 84.2475 222.274 84.1776 222.164 84.1116C222.054 84.0457 221.935 83.9797 221.807 83.9098C221.483 83.7313 221.24 83.514 221.082 83.254C220.922 82.9979 220.844 82.6836 220.844 82.3188C220.844 82.0317 220.889 81.7872 220.975 81.5815C221.061 81.3758 221.18 81.209 221.329 81.0731C221.477 80.9412 221.653 80.8442 221.849 80.7821C222.045 80.72 222.256 80.689 222.476 80.689C222.696 80.689 222.884 80.7045 223.053 80.7394C223.22 80.7743 223.374 80.8287 223.514 80.8985V82.0433C223.446 81.9773 223.368 81.923 223.285 81.8764C223.202 81.8299 223.119 81.7872 223.032 81.7561C222.946 81.7251 222.86 81.7018 222.774 81.6863C222.687 81.6708 222.607 81.663 222.53 81.663C222.423 81.663 222.328 81.6785 222.242 81.7018C222.155 81.729 222.081 81.7678 222.022 81.8143C221.962 81.8609 221.915 81.9191 221.882 81.989C221.849 82.0549 221.831 82.1325 221.831 82.2179C221.831 82.3111 221.849 82.3925 221.888 82.4663C221.923 82.54 221.977 82.6098 222.045 82.6719C222.114 82.7379 222.194 82.8 222.292 82.8621C222.39 82.9242 222.497 82.9901 222.619 83.0561C222.786 83.1492 222.934 83.2463 223.068 83.3472C223.199 83.4519 223.315 83.5684 223.41 83.6964C223.505 83.8284 223.576 83.9758 223.627 84.1427C223.678 84.3095 223.701 84.5036 223.701 84.7248C223.701 85.0313 223.657 85.2875 223.57 85.497C223.481 85.7066 223.362 85.8734 223.214 86.0015C223.065 86.1295 222.887 86.2227 222.687 86.277C222.488 86.3313 222.277 86.3624 222.054 86.3624C221.831 86.3624 221.608 86.3352 221.403 86.2848C221.198 86.2343 221.02 86.1567 220.868 86.0558L220.859 86.0597Z" fill="#FAAF3B"/>
<path d="M226.258 80.7812V81.7398H225.91V85.3138H226.258V86.2723H224.626V85.3138H224.974V81.7398H224.626V80.7812H226.258Z" fill="#FAAF3B"/>
<path d="M230.921 86.2723H229.976L228.263 82.8224C228.162 82.6207 228.094 82.4693 228.055 82.3684H228.043C228.058 82.5624 228.067 82.8574 228.067 83.2571V86.2723H227.184V80.7812H228.192L229.842 84.1224C229.916 84.2738 229.988 84.4212 230.05 84.5687H230.062C230.047 84.4406 230.038 84.1884 230.038 83.8159V80.7812H230.921V86.2723Z" fill="#FAAF3B"/>
<path d="M234.337 86.2723H231.846V80.7812H234.242V81.7863H232.782V83.0087H234.141V84.0099H232.782V85.2672H234.34V86.2684L234.337 86.2723Z" fill="#FAAF3B"/>
<path d="M235.281 86.0597V84.8334C235.45 85.0197 235.632 85.1594 235.828 85.2525C236.024 85.3457 236.223 85.3922 236.426 85.3922C236.545 85.3922 236.646 85.3767 236.735 85.3496C236.824 85.3224 236.895 85.2836 236.955 85.2331C237.014 85.1827 237.059 85.1245 237.086 85.0585C237.115 84.9925 237.13 84.9188 237.13 84.8373C237.13 84.7287 237.106 84.6355 237.062 84.5502C237.014 84.4648 236.952 84.3872 236.872 84.3173C236.791 84.2475 236.696 84.1776 236.586 84.1116C236.476 84.0457 236.357 83.9797 236.229 83.9098C235.905 83.7313 235.662 83.514 235.504 83.254C235.343 82.9979 235.266 82.6836 235.266 82.3188C235.266 82.0317 235.311 81.7872 235.397 81.5815C235.483 81.3758 235.602 81.209 235.751 81.0731C235.899 80.9412 236.075 80.8442 236.271 80.7821C236.467 80.72 236.678 80.689 236.898 80.689C237.118 80.689 237.306 80.7045 237.475 80.7394C237.642 80.7743 237.796 80.8287 237.936 80.8985V82.0433C237.867 81.9773 237.79 81.923 237.707 81.8764C237.624 81.8299 237.54 81.7872 237.454 81.7561C237.368 81.7251 237.282 81.7018 237.196 81.6863C237.109 81.6708 237.029 81.663 236.952 81.663C236.845 81.663 236.75 81.6785 236.663 81.7018C236.577 81.729 236.503 81.7678 236.443 81.8143C236.384 81.8609 236.336 81.9191 236.304 81.989C236.271 82.0549 236.253 82.1325 236.253 82.2179C236.253 82.3111 236.271 82.3925 236.31 82.4663C236.345 82.54 236.399 82.6098 236.467 82.6719C236.536 82.7379 236.616 82.8 236.714 82.8621C236.812 82.9242 236.919 82.9901 237.041 83.0561C237.207 83.1492 237.356 83.2463 237.49 83.3472C237.621 83.4519 237.737 83.5684 237.832 83.6964C237.927 83.8284 237.998 83.9758 238.049 84.1427C238.099 84.3095 238.123 84.5036 238.123 84.7248C238.123 85.0313 238.079 85.2875 237.992 85.497C237.903 85.7066 237.784 85.8734 237.636 86.0015C237.487 86.1295 237.309 86.2227 237.109 86.277C236.91 86.3313 236.699 86.3624 236.476 86.3624C236.253 86.3624 236.03 86.3352 235.825 86.2848C235.62 86.2343 235.442 86.1567 235.29 86.0558L235.281 86.0597Z" fill="#FAAF3B"/>
<path d="M239.064 86.0597V84.8334C239.233 85.0197 239.415 85.1594 239.611 85.2525C239.807 85.3457 240.006 85.3922 240.208 85.3922C240.327 85.3922 240.428 85.3767 240.518 85.3496C240.607 85.3224 240.678 85.2836 240.738 85.2331C240.797 85.1827 240.842 85.1245 240.868 85.0585C240.898 84.9925 240.913 84.9188 240.913 84.8373C240.913 84.7287 240.889 84.6355 240.845 84.5502C240.797 84.4648 240.735 84.3872 240.654 84.3173C240.574 84.2475 240.479 84.1776 240.369 84.1116C240.259 84.0457 240.14 83.9797 240.012 83.9098C239.688 83.7313 239.444 83.514 239.287 83.254C239.126 82.9979 239.049 82.6836 239.049 82.3188C239.049 82.0317 239.093 81.7872 239.18 81.5815C239.266 81.3758 239.385 81.209 239.533 81.0731C239.682 80.9412 239.857 80.8442 240.054 80.7821C240.25 80.72 240.461 80.689 240.681 80.689C240.901 80.689 241.088 80.7045 241.258 80.7394C241.424 80.7743 241.579 80.8287 241.719 80.8985V82.0433C241.65 81.9773 241.573 81.923 241.49 81.8764C241.406 81.8299 241.323 81.7872 241.237 81.7561C241.151 81.7251 241.065 81.7018 240.978 81.6863C240.892 81.6708 240.812 81.663 240.735 81.663C240.628 81.663 240.532 81.6785 240.446 81.7018C240.36 81.729 240.286 81.7678 240.226 81.8143C240.167 81.8609 240.119 81.9191 240.086 81.989C240.054 82.0549 240.036 82.1325 240.036 82.2179C240.036 82.3111 240.054 82.3925 240.092 82.4663C240.128 82.54 240.182 82.6098 240.25 82.6719C240.318 82.7379 240.399 82.8 240.497 82.8621C240.595 82.9242 240.702 82.9901 240.824 83.0561C240.99 83.1492 241.139 83.2463 241.273 83.3472C241.403 83.4519 241.519 83.5684 241.615 83.6964C241.71 83.8284 241.781 83.9758 241.832 84.1427C241.882 84.3095 241.906 84.5036 241.906 84.7248C241.906 85.0313 241.861 85.2875 241.775 85.497C241.686 85.7066 241.567 85.8734 241.418 86.0015C241.27 86.1295 241.091 86.2227 240.892 86.277C240.693 86.3313 240.482 86.3624 240.259 86.3624C240.036 86.3624 239.813 86.3352 239.608 86.2848C239.403 86.2343 239.224 86.1567 239.073 86.0558L239.064 86.0597Z" fill="#FAAF3B"/>
<path d="M248.243 81.7863H246.777V83.1329H248.124V84.1341H246.777V86.2684H245.841V80.7773H248.243V81.7824V81.7863Z" fill="#FAAF3B"/>
<path d="M250.682 86.3662C250.087 86.3662 249.603 86.1101 249.228 85.5979C248.853 85.0856 248.666 84.4182 248.666 83.5955C248.666 82.7262 248.856 82.0277 249.237 81.4883C249.617 80.9489 250.123 80.6851 250.75 80.6851C251.345 80.6851 251.823 80.9412 252.189 81.4534C252.555 81.9656 252.739 82.6448 252.739 83.483C252.739 84.3212 252.549 85.0429 252.168 85.5707C251.788 86.0985 251.294 86.3624 250.682 86.3624V86.3662ZM250.723 81.7522C250.396 81.7522 250.135 81.9152 249.941 82.2412C249.748 82.5671 249.653 82.9979 249.653 83.5334C249.653 84.0689 249.748 84.5074 249.941 84.8218C250.135 85.14 250.387 85.2952 250.7 85.2952C251.012 85.2952 251.279 85.14 251.467 84.8334C251.657 84.5268 251.752 84.1 251.752 83.5528C251.752 83.0057 251.66 82.54 251.476 82.2256C251.291 81.9074 251.041 81.7522 250.723 81.7522Z" fill="#FAAF3B"/>
<path d="M256.912 86.2684H255.836L255.191 84.8558C255.143 84.7472 255.096 84.6541 255.051 84.5687C255.006 84.4833 254.962 84.4135 254.917 84.3514C254.873 84.2893 254.825 84.2466 254.775 84.2117C254.724 84.1806 254.67 84.1651 254.614 84.1651H254.361V86.2684H253.425V80.7773H254.908C255.916 80.7773 256.422 81.274 256.422 82.2714C256.422 82.4615 256.398 82.64 256.356 82.803C256.315 82.966 256.249 83.1096 256.169 83.2415C256.089 83.3696 255.99 83.4821 255.875 83.5791C255.759 83.6762 255.631 83.746 255.491 83.8003V83.8158C255.553 83.843 255.613 83.8818 255.669 83.94C255.729 83.9982 255.782 84.0642 255.839 84.1418C255.895 84.2194 255.946 84.3009 255.993 84.3902C256.044 84.4794 256.089 84.5648 256.127 84.6502L256.912 86.2723V86.2684ZM254.361 81.7048V83.2338H254.769C254.971 83.2338 255.131 83.1561 255.253 83.0048C255.378 82.8496 255.438 82.6555 255.438 82.4266C255.438 81.9454 255.221 81.7087 254.786 81.7087H254.364L254.361 81.7048Z" fill="#FAAF3B"/>
<path d="M262.738 80.7773L261.638 86.2684H260.601L259.911 82.7448C259.875 82.5624 259.851 82.3567 259.845 82.1278H259.834C259.816 82.3761 259.792 82.5818 259.759 82.7448L259.052 86.2684H257.97L256.878 80.7773H257.901L258.487 84.4328C258.511 84.5881 258.531 84.7976 258.54 85.0615H258.558C258.567 84.8636 258.594 84.6502 258.641 84.4173L259.394 80.7773H260.395L261.076 84.4639C261.1 84.5997 261.124 84.7938 261.142 85.0538H261.154C261.163 84.852 261.18 84.6502 261.216 84.4406L261.79 80.7773H262.735H262.738Z" fill="#FAAF3B"/>
<path d="M266.919 86.2684H265.899L265.605 85.046H264.127L263.836 86.2684H262.822L264.336 80.7773H265.444L266.922 86.2684H266.919ZM265.391 84.0991L264.945 82.252C264.912 82.1161 264.889 81.9493 264.877 81.7591H264.853C264.844 81.9182 264.82 82.0812 264.781 82.2364L264.33 84.0952H265.394L265.391 84.0991Z" fill="#FAAF3B"/>
<path d="M270.922 86.2684H269.846L269.201 84.8558C269.153 84.7472 269.105 84.6541 269.061 84.5687C269.016 84.4833 268.972 84.4135 268.927 84.3514C268.882 84.2893 268.835 84.2466 268.784 84.2117C268.734 84.1806 268.68 84.1651 268.624 84.1651H268.371V86.2684H267.435V80.7773H268.918C269.926 80.7773 270.431 81.274 270.431 82.2714C270.431 82.4615 270.408 82.64 270.366 82.803C270.324 82.966 270.259 83.1096 270.179 83.2415C270.098 83.3696 270 83.4821 269.884 83.5791C269.768 83.6762 269.641 83.746 269.501 83.8003V83.8158C269.563 83.843 269.623 83.8818 269.679 83.94C269.739 83.9982 269.792 84.0642 269.849 84.1418C269.905 84.2194 269.956 84.3009 270.003 84.3902C270.054 84.4794 270.098 84.5648 270.137 84.6502L270.922 86.2723V86.2684ZM268.374 81.7048V83.2338H268.781C268.984 83.2338 269.144 83.1561 269.266 83.0048C269.391 82.8496 269.45 82.6555 269.45 82.4266C269.45 81.9454 269.233 81.7087 268.799 81.7087H268.377L268.374 81.7048Z" fill="#FAAF3B"/>
<path d="M271.313 86.2684V80.7773H272.785C274.26 80.7773 275 81.6699 275 83.455C275 84.3087 274.798 84.9917 274.396 85.5039C273.995 86.0161 273.457 86.2684 272.785 86.2684H271.313ZM272.25 81.7863V85.2672H272.714C273.121 85.2672 273.439 85.1081 273.668 84.786C273.9 84.4639 274.013 84.0254 274.013 83.4744C274.013 82.9505 273.9 82.5391 273.671 82.2403C273.442 81.9415 273.121 81.7902 272.708 81.7902H272.25V81.7863Z" fill="#FAAF3B"/>
<defs>
<linearGradient id="paint0_linear_192_6455" x1="141.102" y1="47.5959" x2="160.917" y2="47.5959" gradientUnits="userSpaceOnUse">
<stop stop-color="#1E3D72"/>
<stop offset="1" stop-color="#2A5398"/>
</linearGradient>
<linearGradient id="paint1_linear_192_6455" x1="202.965" y1="47.5058" x2="222.05" y2="47.5058" gradientUnits="userSpaceOnUse">
<stop stop-color="#1E3D72"/>
<stop offset="1" stop-color="#2A5398"/>
</linearGradient>
<linearGradient id="paint2_linear_192_6455" x1="120.773" y1="47.5519" x2="139.941" y2="47.5519" gradientUnits="userSpaceOnUse">
<stop stop-color="#1E3D72"/>
<stop offset="1" stop-color="#2A5398"/>
</linearGradient>
<linearGradient id="paint3_linear_192_6455" x1="100.603" y1="47.5089" x2="119.727" y2="47.5089" gradientUnits="userSpaceOnUse">
<stop stop-color="#1E3D72"/>
<stop offset="1" stop-color="#2A5398"/>
</linearGradient>
<linearGradient id="paint4_linear_192_6455" x1="243.537" y1="47.5637" x2="263.172" y2="47.5637" gradientUnits="userSpaceOnUse">
<stop stop-color="#1E3D72"/>
<stop offset="1" stop-color="#2A5398"/>
</linearGradient>
<linearGradient id="paint5_linear_192_6455" x1="161.99" y1="47.5206" x2="183.076" y2="47.5206" gradientUnits="userSpaceOnUse">
<stop stop-color="#1E3D72"/>
<stop offset="1" stop-color="#2A5398"/>
</linearGradient>
<linearGradient id="paint6_linear_192_6455" x1="222.884" y1="47.574" x2="242.361" y2="47.574" gradientUnits="userSpaceOnUse">
<stop stop-color="#1E3D72"/>
<stop offset="1" stop-color="#2A5398"/>
</linearGradient>
<linearGradient id="paint7_linear_192_6455" x1="183.533" y1="47.494" x2="201.898" y2="47.494" gradientUnits="userSpaceOnUse">
<stop stop-color="#1E3D72"/>
<stop offset="1" stop-color="#2A5398"/>
</linearGradient>
<linearGradient id="paint8_linear_192_6455" x1="25" y1="45.924" x2="117.035" y2="45.924" gradientUnits="userSpaceOnUse">
<stop stop-color="#1E3D72"/>
<stop offset="1" stop-color="#73CEE6"/>
</linearGradient>
<linearGradient id="paint9_linear_192_6455" x1="71.019" y1="82.0841" x2="90.6882" y2="82.0841" gradientUnits="userSpaceOnUse">
<stop stop-color="#1E3D72"/>
<stop offset="1" stop-color="#73CEE6"/>
</linearGradient>
</defs>
</svg>
